<svg version="1.1" id="Layer_1" xmlns="http://www.w3.org/2000/svg" xmlns:xlink="http://www.w3.org/1999/xlink" x="0px" y="0px"
	 width="100%" viewBox="0 0 512 512" enable-background="new 0 0 512 512" xml:space="preserve">
<path fill="#00A1C9" opacity="1.000000" stroke="none" 
	d="
M1.000000,413.000000 
	C1.000000,275.710632 1.000000,138.421249 1.000000,1.065936 
	C171.568054,1.065936 342.136139,1.065936 513.000000,1.065936 
	C513.000000,138.023941 513.000000,275.048096 512.533813,412.493408 
	C342.709625,412.908783 173.351547,412.902771 3.993465,412.901367 
	C2.995644,412.901367 1.997822,412.965698 1.000000,413.000000 
M164.538223,301.960938 
	C175.343567,312.293457 187.445099,320.763885 201.079132,326.916992 
	C203.959183,328.216827 204.915970,329.840149 204.859909,332.947540 
	C204.673660,343.273560 204.683456,353.607117 204.848907,363.934052 
	C204.948990,370.179993 209.882828,374.551270 215.510773,373.809998 
	C220.640915,373.134277 223.960388,369.121674 224.013519,363.207092 
	C224.095322,354.103546 224.035065,344.998688 224.035065,335.666534 
	C232.268524,336.990936 239.921768,338.221985 247.957581,339.514587 
	C247.957581,347.648499 247.862549,355.617645 247.988815,363.583313 
	C248.083221,369.538910 252.050354,373.739319 257.366425,373.880585 
	C262.863983,374.026703 266.991821,369.722595 267.160797,363.528839 
	C267.260712,359.866180 267.186279,356.198700 267.187592,352.533386 
	C267.189148,348.111359 267.187927,343.689331 267.187927,339.297424 
	C271.773285,338.710449 275.580566,338.312805 279.356110,337.714722 
	C283.197693,337.106201 287.007996,336.300201 291.318970,335.489044 
	C291.318970,343.330566 291.317352,350.470886 291.320038,357.611206 
	C291.320801,359.610413 291.240295,361.615234 291.359680,363.607727 
	C291.721680,369.650024 295.544281,373.747162 300.843658,373.880859 
	C306.318298,374.018921 310.614410,369.774811 310.728088,363.541443 
	C310.913361,353.381836 310.905426,343.214355 310.721771,333.054840 
	C310.663666,329.841461 311.482727,328.110687 314.605652,326.606384 
	C347.968140,310.535889 371.155334,285.064789 384.083771,250.354309 
	C385.151550,247.487518 386.645599,246.377289 389.678040,245.824661 
	C409.789948,242.159424 424.230072,224.507187 424.228577,203.972656 
	C424.227081,183.143509 409.750549,165.622345 389.264648,161.996414 
	C386.349976,161.480530 385.068146,160.239182 384.079163,157.615723 
	C369.307709,118.431374 342.315491,91.356735 303.165192,76.496391 
	C300.521667,75.492981 299.358917,74.167366 298.626282,71.382256 
	C293.602631,52.285084 276.961151,39.284935 257.800995,39.164890 
	C238.666779,39.045013 221.857452,51.940578 216.710602,70.987427 
	C215.877838,74.069275 214.474533,75.599731 211.495865,76.733818 
	C172.702377,91.503838 146.003922,118.460533 131.196976,157.178726 
	C130.126419,159.978088 128.901276,161.389893 125.753395,161.877258 
	C104.705475,165.135910 89.760185,182.754364 89.771286,203.964111 
	C89.782364,225.133026 104.866196,242.851959 125.819778,246.019272 
	C128.710083,246.456177 130.076050,247.545975 131.048172,250.271851 
	C138.045166,269.891571 149.162796,286.900299 164.538223,301.960938 
z"/>
<path fill="#FEFFFF" opacity="1.000000" stroke="none" 
	d="
M1.000000,413.467834 
	C1.997822,412.965698 2.995644,412.901367 3.993465,412.901367 
	C173.351547,412.902771 342.709625,412.908783 512.533813,412.957306 
	C513.000000,446.312897 513.000000,479.625824 513.000000,512.938171 
	C342.333313,512.937622 171.666656,512.937622 1.000000,512.937622 
	C1.000000,479.895386 1.000000,446.915558 1.000000,413.467834 
M194.084290,455.546631 
	C194.165268,455.401001 194.221771,455.229797 194.336731,455.119659 
	C194.401733,455.057373 194.655792,455.061615 194.667053,455.092804 
	C195.162125,456.463135 195.770279,457.809418 196.098083,459.220581 
	C198.392029,469.095917 200.627609,478.984802 202.958847,489.206940 
	C205.519257,489.206940 207.875931,488.909790 210.127090,489.270721 
	C214.402634,489.956238 215.850494,487.927307 216.803986,484.086395 
	C219.409897,473.589203 222.415833,463.191193 225.272263,452.756348 
	C226.620758,447.830231 227.989685,442.909729 229.472229,437.541687 
	C225.063141,437.541687 221.334167,437.541687 217.402313,437.541687 
	C214.856018,449.753021 212.356262,461.741241 209.856491,473.729462 
	C209.457794,473.701416 209.059113,473.673370 208.660416,473.645325 
	C206.075714,462.025879 203.491013,450.406433 200.946854,438.969238 
	C196.690475,438.969238 192.928711,438.969238 189.039246,438.969238 
	C186.417801,450.980957 183.853088,462.732788 181.288376,474.484619 
	C180.969727,474.443481 180.651093,474.402344 180.332458,474.361206 
	C177.747467,462.076660 175.162491,449.792114 172.585663,437.546295 
	C168.309433,437.546295 164.565460,437.546295 160.461319,437.546295 
	C160.852356,439.336914 161.097549,440.780670 161.485367,442.185089 
	C164.896500,454.537445 168.337021,466.881714 171.760849,479.230560 
	C174.784882,490.137451 174.780441,490.139435 186.050522,488.991119 
	C186.203583,488.975555 186.344482,488.840698 186.893509,488.544067 
	C189.198593,477.973083 191.567795,467.108063 194.084290,455.546631 
M128.358536,445.796295 
	C123.372147,460.025482 118.385765,474.254669 113.241959,488.933075 
	C117.499802,488.933075 121.086838,488.933075 124.849960,488.933075 
	C125.423637,487.151428 126.256149,485.458618 126.484306,483.687927 
	C127.135765,478.632080 129.675262,476.380463 134.829880,477.378479 
	C135.631424,477.533661 136.488876,477.400177 137.320465,477.400208 
	C145.909241,477.400330 145.821228,477.432129 148.801498,485.669617 
	C149.302887,487.055481 150.806534,488.832794 152.072433,489.037811 
	C155.115112,489.530609 158.291580,489.197357 161.984192,489.197357 
	C156.161041,472.623352 150.456024,456.693054 145.027954,440.668976 
	C143.979706,437.574402 142.231430,437.112915 139.483810,437.208710 
	C129.604645,437.553192 132.203735,435.559662 128.358536,445.796295 
M234.774567,483.575897 
	C235.652710,485.256744 236.394897,488.295563 237.430939,488.399292 
	C244.458176,489.102875 251.682678,490.164825 258.580688,489.210876 
	C266.309448,488.142059 270.570312,482.125549 270.977966,474.959656 
	C271.381287,467.871094 268.418427,463.492310 260.728119,460.140686 
	C256.765503,458.413666 252.539169,457.214966 248.769821,455.158417 
	C247.231735,454.319214 245.638824,451.741119 245.805893,450.134583 
	C245.972183,448.535553 248.062454,446.555725 249.767776,445.847809 
	C251.799850,445.004242 254.344498,445.040100 256.623199,445.227722 
	C260.194427,445.521790 263.728912,446.262512 267.277374,446.813782 
	C268.416382,438.386383 268.367737,437.904053 260.381775,436.918457 
	C255.523987,436.318909 250.358795,436.298004 245.595276,437.286896 
	C238.114746,438.839783 233.865479,445.000336 234.136047,452.197693 
	C234.376526,458.593811 237.903030,462.706085 243.510864,465.184875 
	C247.616867,466.999786 252.043839,468.204956 255.892090,470.434021 
	C257.631531,471.441559 259.295654,474.340118 259.173157,476.264832 
	C259.068024,477.916626 256.625549,480.002808 254.750366,480.800171 
	C252.739700,481.655090 250.160034,481.504364 247.871948,481.302368 
	C243.642731,480.928925 239.445099,480.197876 234.987396,479.581665 
	C234.907150,480.767151 234.841202,481.741547 234.774567,483.575897 
M321.560974,457.204437 
	C317.462097,463.708557 317.213928,470.731293 319.070099,477.899689 
	C321.105896,485.761902 327.189789,490.157990 335.712616,490.280487 
	C344.669189,490.409149 350.923615,486.299194 353.072449,478.270599 
	C353.958771,474.959045 354.181793,471.358063 354.060089,467.911560 
	C353.793823,460.371979 350.742310,454.312103 343.324890,451.395081 
	C335.671082,448.385101 327.718109,450.436310 321.560974,457.204437 
M375.586578,472.496155 
	C375.586578,477.938507 375.586578,483.380859 375.586578,488.853302 
	C378.432892,488.853302 380.656158,488.853302 383.326355,488.853302 
	C383.326355,473.753815 383.326355,459.007599 383.326355,443.677185 
	C389.015045,443.677185 394.256348,443.677185 399.611481,443.677185 
	C399.611481,441.319397 399.611481,439.558777 399.611481,437.631195 
	C385.998138,437.631195 372.645569,437.631195 359.317352,437.631195 
	C359.317352,439.784607 359.317352,441.533173 359.317352,443.918213 
	C364.847565,443.918213 370.075165,443.918213 375.586670,443.918213 
	C375.586670,453.537140 375.586670,462.517181 375.586578,472.496155 
M308.144806,476.490845 
	C308.144806,463.565338 308.144806,450.639832 308.144806,437.509705 
	C305.422394,437.509705 303.341675,437.509705 300.904846,437.509705 
	C300.904846,454.766510 300.904846,471.772827 300.904846,488.803619 
	C303.471405,488.803619 305.676025,488.803619 308.144806,488.803619 
	C308.144806,484.775909 308.144806,481.130768 308.144806,476.490845 
z"/>
<path fill="#FCFEFE" opacity="1.000000" stroke="none" 
	d="
M164.282990,301.717499 
	C149.162796,286.900299 138.045166,269.891571 131.048172,250.271851 
	C130.076050,247.545975 128.710083,246.456177 125.819778,246.019272 
	C104.866196,242.851959 89.782364,225.133026 89.771286,203.964111 
	C89.760185,182.754364 104.705475,165.135910 125.753395,161.877258 
	C128.901276,161.389893 130.126419,159.978088 131.196976,157.178726 
	C146.003922,118.460533 172.702377,91.503838 211.495865,76.733818 
	C214.474533,75.599731 215.877838,74.069275 216.710602,70.987427 
	C221.857452,51.940578 238.666779,39.045013 257.800995,39.164890 
	C276.961151,39.284935 293.602631,52.285084 298.626282,71.382256 
	C299.358917,74.167366 300.521667,75.492981 303.165192,76.496391 
	C342.315491,91.356735 369.307709,118.431374 384.079163,157.615723 
	C385.068146,160.239182 386.349976,161.480530 389.264648,161.996414 
	C409.750549,165.622345 424.227081,183.143509 424.228577,203.972656 
	C424.230072,224.507187 409.789948,242.159424 389.678040,245.824661 
	C386.645599,246.377289 385.151550,247.487518 384.083771,250.354309 
	C371.155334,285.064789 347.968140,310.535889 314.605652,326.606384 
	C311.482727,328.110687 310.663666,329.841461 310.721771,333.054840 
	C310.905426,343.214355 310.913361,353.381836 310.728088,363.541443 
	C310.614410,369.774811 306.318298,374.018921 300.843658,373.880859 
	C295.544281,373.747162 291.721680,369.650024 291.359680,363.607727 
	C291.240295,361.615234 291.320801,359.610413 291.320038,357.611206 
	C291.317352,350.470886 291.318970,343.330566 291.318970,335.489044 
	C287.007996,336.300201 283.197693,337.106201 279.356110,337.714722 
	C275.580566,338.312805 271.773285,338.710449 267.187927,339.297424 
	C267.187927,343.689331 267.189148,348.111359 267.187592,352.533386 
	C267.186279,356.198700 267.260712,359.866180 267.160797,363.528839 
	C266.991821,369.722595 262.863983,374.026703 257.366425,373.880585 
	C252.050354,373.739319 248.083221,369.538910 247.988815,363.583313 
	C247.862549,355.617645 247.957581,347.648499 247.957581,339.514587 
	C239.921768,338.221985 232.268524,336.990936 224.035065,335.666534 
	C224.035065,344.998688 224.095322,354.103546 224.013519,363.207092 
	C223.960388,369.121674 220.640915,373.134277 215.510773,373.809998 
	C209.882828,374.551270 204.948990,370.179993 204.848907,363.934052 
	C204.683456,353.607117 204.673660,343.273560 204.859909,332.947540 
	C204.915970,329.840149 203.959183,328.216827 201.079132,326.916992 
	C187.445099,320.763885 175.343567,312.293457 164.282990,301.717499 
M162.972900,140.499573 
	C158.568161,148.573639 154.163422,156.647720 149.676285,164.872818 
	C161.842133,171.416046 169.279526,180.162262 173.144241,192.007538 
	C173.489273,193.065033 175.886047,194.033569 177.344574,194.055191 
	C188.669998,194.223129 199.999054,194.132812 211.326920,194.153290 
	C220.735916,194.170288 224.028503,197.412384 224.032181,206.702118 
	C224.045471,240.352676 224.037659,274.003235 224.037796,307.653778 
	C224.037811,309.609558 224.037811,311.565338 224.037811,313.999298 
	C232.122650,315.523285 239.720032,316.955383 247.499786,318.421875 
	C247.735214,316.952393 247.927032,316.313507 247.927200,315.674530 
	C247.944290,252.704712 247.924255,189.734848 248.021469,126.765160 
	C248.026016,123.819771 246.507523,123.272522 244.312210,122.521606 
	C233.055618,118.671234 224.820145,111.308235 219.459671,100.701561 
	C218.948196,99.689491 218.365723,98.713303 217.624390,97.373871 
	C194.984665,106.028893 177.020737,120.185295 162.972900,140.499573 
M286.846161,314.324249 
	C290.707550,314.024567 291.409210,311.751129 291.396484,308.215515 
	C291.275513,274.561188 291.314209,240.906235 291.331177,207.251465 
	C291.336151,197.352585 294.590546,194.162674 304.586151,194.151901 
	C315.249054,194.140396 325.912964,194.069885 336.574158,194.203857 
	C339.291992,194.238007 340.276215,193.265457 341.585419,190.796844 
	C344.895294,184.555893 348.643036,178.443726 353.009064,172.905746 
	C355.568420,169.659485 359.648041,167.611801 363.275665,164.848343 
	C350.779022,133.108185 329.004517,110.781845 297.174835,97.739517 
	C291.803497,109.621361 283.682465,118.144279 271.633301,122.125122 
	C267.824097,123.383629 267.093811,125.238213 267.100739,128.902008 
	C267.216583,190.046860 267.183350,251.191971 267.183319,312.337036 
	C267.183319,314.090576 267.183289,315.844116 267.183289,318.308777 
	C274.020416,316.968872 280.036346,315.789886 286.846161,314.324249 
M204.794861,226.515350 
	C204.794861,222.406921 204.794861,218.298508 204.794861,213.712784 
	C196.721588,213.712784 189.242584,214.067352 181.815842,213.596970 
	C176.199310,213.241241 172.153107,214.041504 171.212448,220.500290 
	C171.007721,221.905991 169.983856,223.204178 169.284943,224.524185 
	C164.951096,232.709518 158.173141,238.421890 150.000381,242.903397 
	C160.487900,270.546692 178.255569,291.229645 204.794861,305.749817 
	C204.794861,278.957001 204.794861,253.234238 204.794861,226.515350 
M328.856171,292.385345 
	C344.898224,278.987518 356.520050,262.547058 363.693268,242.676590 
	C352.212311,236.473297 344.547180,227.685837 340.882416,215.569199 
	C340.659821,214.833145 339.572540,213.851028 338.876892,213.842346 
	C329.626740,213.726990 320.374664,213.765305 311.026245,213.765305 
	C311.026245,244.186905 311.026245,273.915314 311.026245,305.005035 
	C317.306549,300.584869 322.807404,296.713287 328.856171,292.385345 
M276.299927,68.311684 
	C268.274384,58.547520 256.707825,55.913681 246.509811,61.528122 
	C236.664948,66.948135 232.004318,78.733978 235.694183,89.339783 
	C238.740051,98.094566 244.934601,103.549568 254.096176,104.911087 
	C263.666870,106.333389 271.563690,102.872879 276.858368,94.723076 
	C282.372406,86.235603 282.056885,77.480034 276.299927,68.311684 
M155.224335,202.655106 
	C154.487564,192.723068 149.459152,185.679810 140.255798,182.197021 
	C131.452469,178.865631 123.187836,180.577423 116.242134,187.089523 
	C108.528389,194.321777 106.815788,205.703156 111.822891,214.988815 
	C116.755013,224.135422 127.040276,228.908005 137.104401,226.719986 
	C147.795349,224.395691 154.686691,215.599503 155.224335,202.655106 
M379.785187,227.094696 
	C396.484070,228.839676 409.840149,211.697723 403.320099,195.333328 
	C399.124756,184.803574 388.263306,178.892441 377.111877,181.090439 
	C366.473969,183.187195 358.668182,192.961426 358.745789,204.087982 
	C358.827759,215.838364 366.572601,224.646530 379.785187,227.094696 
z"/>
<path fill="#08A3CA" opacity="1.000000" stroke="none" 
	d="
M194.010651,455.894836 
	C191.567795,467.108063 189.198593,477.973083 186.893509,488.544067 
	C186.344482,488.840698 186.203583,488.975555 186.050522,488.991119 
	C174.780441,490.139435 174.784882,490.137451 171.760849,479.230560 
	C168.337021,466.881714 164.896500,454.537445 161.485367,442.185089 
	C161.097549,440.780670 160.852356,439.336914 160.461319,437.546295 
	C164.565460,437.546295 168.309433,437.546295 172.585663,437.546295 
	C175.162491,449.792114 177.747467,462.076660 180.332458,474.361206 
	C180.651093,474.402344 180.969727,474.443481 181.288376,474.484619 
	C183.853088,462.732788 186.417801,450.980957 189.039246,438.969238 
	C192.928711,438.969238 196.690475,438.969238 200.946854,438.969238 
	C203.491013,450.406433 206.075714,462.025879 208.660416,473.645325 
	C209.059113,473.673370 209.457794,473.701416 209.856491,473.729462 
	C212.356262,461.741241 214.856018,449.753021 217.402313,437.541687 
	C221.334167,437.541687 225.063141,437.541687 229.472229,437.541687 
	C227.989685,442.909729 226.620758,447.830231 225.272263,452.756348 
	C222.415833,463.191193 219.409897,473.589203 216.803986,484.086395 
	C215.850494,487.927307 214.402634,489.956238 210.127090,489.270721 
	C207.875931,488.909790 205.519257,489.206940 202.958847,489.206940 
	C200.627609,478.984802 198.392029,469.095917 196.098083,459.220581 
	C195.770279,457.809418 195.162125,456.463135 194.667053,455.092804 
	C194.655792,455.061615 194.401733,455.057373 194.336731,455.119659 
	C194.221771,455.229797 194.165268,455.401001 194.010651,455.894836 
z"/>
<path fill="#08A3CA" opacity="1.000000" stroke="none" 
	d="
M128.515274,445.434448 
	C132.203735,435.559662 129.604645,437.553192 139.483810,437.208710 
	C142.231430,437.112915 143.979706,437.574402 145.027954,440.668976 
	C150.456024,456.693054 156.161041,472.623352 161.984192,489.197357 
	C158.291580,489.197357 155.115112,489.530609 152.072433,489.037811 
	C150.806534,488.832794 149.302887,487.055481 148.801498,485.669617 
	C145.821228,477.432129 145.909241,477.400330 137.320465,477.400208 
	C136.488876,477.400177 135.631424,477.533661 134.829880,477.378479 
	C129.675262,476.380463 127.135765,478.632080 126.484306,483.687927 
	C126.256149,485.458618 125.423637,487.151428 124.849960,488.933075 
	C121.086838,488.933075 117.499802,488.933075 113.241959,488.933075 
	C118.385765,474.254669 123.372147,460.025482 128.515274,445.434448 
M139.486526,455.100494 
	C138.854462,453.198303 138.222397,451.296082 137.136703,448.028625 
	C134.823318,455.814453 132.918823,462.224121 130.912872,468.975281 
	C135.244263,468.975281 139.130524,468.975281 143.550949,468.975281 
	C142.210983,464.335999 140.983765,460.087128 139.486526,455.100494 
z"/>
<path fill="#08A3CA" opacity="1.000000" stroke="none" 
	d="
M234.774902,483.145905 
	C234.841202,481.741547 234.907150,480.767151 234.987396,479.581665 
	C239.445099,480.197876 243.642731,480.928925 247.871948,481.302368 
	C250.160034,481.504364 252.739700,481.655090 254.750366,480.800171 
	C256.625549,480.002808 259.068024,477.916626 259.173157,476.264832 
	C259.295654,474.340118 257.631531,471.441559 255.892090,470.434021 
	C252.043839,468.204956 247.616867,466.999786 243.510864,465.184875 
	C237.903030,462.706085 234.376526,458.593811 234.136047,452.197693 
	C233.865479,445.000336 238.114746,438.839783 245.595276,437.286896 
	C250.358795,436.298004 255.523987,436.318909 260.381775,436.918457 
	C268.367737,437.904053 268.416382,438.386383 267.277374,446.813782 
	C263.728912,446.262512 260.194427,445.521790 256.623199,445.227722 
	C254.344498,445.040100 251.799850,445.004242 249.767776,445.847809 
	C248.062454,446.555725 245.972183,448.535553 245.805893,450.134583 
	C245.638824,451.741119 247.231735,454.319214 248.769821,455.158417 
	C252.539169,457.214966 256.765503,458.413666 260.728119,460.140686 
	C268.418427,463.492310 271.381287,467.871094 270.977966,474.959656 
	C270.570312,482.125549 266.309448,488.142059 258.580688,489.210876 
	C251.682678,490.164825 244.458176,489.102875 237.430939,488.399292 
	C236.394897,488.295563 235.652710,485.256744 234.774902,483.145905 
z"/>
<path fill="#0BA5CB" opacity="1.000000" stroke="none" 
	d="
M321.777496,456.905457 
	C327.718109,450.436310 335.671082,448.385101 343.324890,451.395081 
	C350.742310,454.312103 353.793823,460.371979 354.060089,467.911560 
	C354.181793,471.358063 353.958771,474.959045 353.072449,478.270599 
	C350.923615,486.299194 344.669189,490.409149 335.712616,490.280487 
	C327.189789,490.157990 321.105896,485.761902 319.070099,477.899689 
	C317.213928,470.731293 317.462097,463.708557 321.777496,456.905457 
M333.962860,484.100006 
	C339.035156,484.719788 344.001373,483.742737 345.125336,478.314484 
	C346.191223,473.166901 346.363190,467.400269 345.158722,462.325867 
	C343.635803,455.909882 334.704865,454.089935 329.605774,458.388214 
	C322.799683,464.125427 325.035217,480.278656 333.962860,484.100006 
z"/>
<path fill="#0BA5CB" opacity="1.000000" stroke="none" 
	d="
M375.586609,471.996704 
	C375.586670,462.517181 375.586670,453.537140 375.586670,443.918213 
	C370.075165,443.918213 364.847565,443.918213 359.317352,443.918213 
	C359.317352,441.533173 359.317352,439.784607 359.317352,437.631195 
	C372.645569,437.631195 385.998138,437.631195 399.611481,437.631195 
	C399.611481,439.558777 399.611481,441.319397 399.611481,443.677185 
	C394.256348,443.677185 389.015045,443.677185 383.326355,443.677185 
	C383.326355,459.007599 383.326355,473.753815 383.326355,488.853302 
	C380.656158,488.853302 378.432892,488.853302 375.586578,488.853302 
	C375.586578,483.380859 375.586578,477.938507 375.586609,471.996704 
z"/>
<path fill="#02A2C9" opacity="1.000000" stroke="none" 
	d="
M308.144806,476.988251 
	C308.144806,481.130768 308.144806,484.775909 308.144806,488.803619 
	C305.676025,488.803619 303.471405,488.803619 300.904846,488.803619 
	C300.904846,471.772827 300.904846,454.766510 300.904846,437.509705 
	C303.341675,437.509705 305.422394,437.509705 308.144806,437.509705 
	C308.144806,450.639832 308.144806,463.565338 308.144806,476.988251 
z"/>
<path fill="#02A2C9" opacity="1.000000" stroke="none" 
	d="
M163.168091,140.197388 
	C177.020737,120.185295 194.984665,106.028893 217.624390,97.373871 
	C218.365723,98.713303 218.948196,99.689491 219.459671,100.701561 
	C224.820145,111.308235 233.055618,118.671234 244.312210,122.521606 
	C246.507523,123.272522 248.026016,123.819771 248.021469,126.765160 
	C247.924255,189.734848 247.944290,252.704712 247.927200,315.674530 
	C247.927032,316.313507 247.735214,316.952393 247.499786,318.421875 
	C239.720032,316.955383 232.122650,315.523285 224.037811,313.999298 
	C224.037811,311.565338 224.037811,309.609558 224.037796,307.653778 
	C224.037659,274.003235 224.045471,240.352676 224.032181,206.702118 
	C224.028503,197.412384 220.735916,194.170288 211.326920,194.153290 
	C199.999054,194.132812 188.669998,194.223129 177.344574,194.055191 
	C175.886047,194.033569 173.489273,193.065033 173.144241,192.007538 
	C169.279526,180.162262 161.842133,171.416046 149.676285,164.872818 
	C154.163422,156.647720 158.568161,148.573639 163.168091,140.197388 
z"/>
<path fill="#02A2C9" opacity="1.000000" stroke="none" 
	d="
M286.449219,314.467590 
	C280.036346,315.789886 274.020416,316.968872 267.183289,318.308777 
	C267.183289,315.844116 267.183319,314.090576 267.183319,312.337036 
	C267.183350,251.191971 267.216583,190.046860 267.100739,128.902008 
	C267.093811,125.238213 267.824097,123.383629 271.633301,122.125122 
	C283.682465,118.144279 291.803497,109.621361 297.174835,97.739517 
	C329.004517,110.781845 350.779022,133.108185 363.275665,164.848343 
	C359.648041,167.611801 355.568420,169.659485 353.009064,172.905746 
	C348.643036,178.443726 344.895294,184.555893 341.585419,190.796844 
	C340.276215,193.265457 339.291992,194.238007 336.574158,194.203857 
	C325.912964,194.069885 315.249054,194.140396 304.586151,194.151901 
	C294.590546,194.162674 291.336151,197.352585 291.331177,207.251465 
	C291.314209,240.906235 291.275513,274.561188 291.396484,308.215515 
	C291.409210,311.751129 290.707550,314.024567 286.449219,314.467590 
z"/>
<path fill="#03A2CA" opacity="1.000000" stroke="none" 
	d="
M204.794861,227.013412 
	C204.794861,253.234238 204.794861,278.957001 204.794861,305.749817 
	C178.255569,291.229645 160.487900,270.546692 150.000381,242.903397 
	C158.173141,238.421890 164.951096,232.709518 169.284943,224.524185 
	C169.983856,223.204178 171.007721,221.905991 171.212448,220.500290 
	C172.153107,214.041504 176.199310,213.241241 181.815842,213.596970 
	C189.242584,214.067352 196.721588,213.712784 204.794861,213.712784 
	C204.794861,218.298508 204.794861,222.406921 204.794861,227.013412 
z"/>
<path fill="#01A1C9" opacity="1.000000" stroke="none" 
	d="
M328.582214,292.613525 
	C322.807404,296.713287 317.306549,300.584869 311.026245,305.005035 
	C311.026245,273.915314 311.026245,244.186905 311.026245,213.765305 
	C320.374664,213.765305 329.626740,213.726990 338.876892,213.842346 
	C339.572540,213.851028 340.659821,214.833145 340.882416,215.569199 
	C344.547180,227.685837 352.212311,236.473297 363.693268,242.676590 
	C356.520050,262.547058 344.898224,278.987518 328.582214,292.613525 
z"/>
<path fill="#03A2CA" opacity="1.000000" stroke="none" 
	d="
M276.522308,68.601822 
	C282.056885,77.480034 282.372406,86.235603 276.858368,94.723076 
	C271.563690,102.872879 263.666870,106.333389 254.096176,104.911087 
	C244.934601,103.549568 238.740051,98.094566 235.694183,89.339783 
	C232.004318,78.733978 236.664948,66.948135 246.509811,61.528122 
	C256.707825,55.913681 268.274384,58.547520 276.522308,68.601822 
z"/>
<path fill="#03A2C9" opacity="1.000000" stroke="none" 
	d="
M155.239868,203.103485 
	C154.686691,215.599503 147.795349,224.395691 137.104401,226.719986 
	C127.040276,228.908005 116.755013,224.135422 111.822891,214.988815 
	C106.815788,205.703156 108.528389,194.321777 116.242134,187.089523 
	C123.187836,180.577423 131.452469,178.865631 140.255798,182.197021 
	C149.459152,185.679810 154.487564,192.723068 155.239868,203.103485 
z"/>
<path fill="#03A2C9" opacity="1.000000" stroke="none" 
	d="
M379.347046,227.056976 
	C366.572601,224.646530 358.827759,215.838364 358.745789,204.087982 
	C358.668182,192.961426 366.473969,183.187195 377.111877,181.090439 
	C388.263306,178.892441 399.124756,184.803574 403.320099,195.333328 
	C409.840149,211.697723 396.484070,228.839676 379.347046,227.056976 
z"/>
<path fill="#F9FDFE" opacity="1.000000" stroke="none" 
	d="
M139.621552,455.469360 
	C140.983765,460.087128 142.210983,464.335999 143.550949,468.975281 
	C139.130524,468.975281 135.244263,468.975281 130.912872,468.975281 
	C132.918823,462.224121 134.823318,455.814453 137.136703,448.028625 
	C138.222397,451.296082 138.854462,453.198303 139.621552,455.469360 
z"/>
<path fill="#F9FDFE" opacity="1.000000" stroke="none" 
	d="
M333.554565,484.035309 
	C325.035217,480.278656 322.799683,464.125427 329.605774,458.388214 
	C334.704865,454.089935 343.635803,455.909882 345.158722,462.325867 
	C346.363190,467.400269 346.191223,473.166901 345.125336,478.314484 
	C344.001373,483.742737 339.035156,484.719788 333.554565,484.035309 
z"/>
</svg>