<?xml version="1.0" encoding="UTF-8"?>
<svg xmlns="http://www.w3.org/2000/svg" xmlns:xlink="http://www.w3.org/1999/xlink" width="48px" height="48px" viewBox="0 0 48 48" version="1.1">
<g id="surface1">
<path style=" stroke:none;fill-rule:nonzero;fill:rgb(0%,63.137255%,78.823529%);fill-opacity:1;" d="M 0.09375 38.71875 C 0.09375 25.847656 0.09375 12.976562 0.09375 0.101562 C 16.085938 0.101562 32.074219 0.101562 48.09375 0.101562 C 48.09375 12.941406 48.09375 25.785156 48.050781 38.671875 C 32.128906 38.710938 16.25 38.710938 0.375 38.710938 C 0.28125 38.710938 0.1875 38.714844 0.09375 38.71875 M 15.425781 28.308594 C 16.4375 29.277344 17.574219 30.070312 18.851562 30.648438 C 19.121094 30.769531 19.210938 30.921875 19.207031 31.214844 C 19.1875 32.183594 19.1875 33.152344 19.203125 34.117188 C 19.214844 34.703125 19.675781 35.113281 20.203125 35.042969 C 20.683594 34.980469 20.996094 34.605469 21 34.050781 C 21.007812 33.195312 21.003906 32.34375 21.003906 31.46875 C 21.773438 31.59375 22.492188 31.707031 23.246094 31.828125 C 23.246094 32.59375 23.238281 33.339844 23.25 34.085938 C 23.257812 34.644531 23.628906 35.039062 24.128906 35.050781 C 24.644531 35.066406 25.03125 34.660156 25.046875 34.082031 C 25.054688 33.738281 25.046875 33.394531 25.050781 33.050781 C 25.050781 32.636719 25.050781 32.222656 25.050781 31.808594 C 25.480469 31.753906 25.835938 31.71875 26.191406 31.660156 C 26.550781 31.605469 26.90625 31.527344 27.3125 31.453125 C 27.3125 32.1875 27.3125 32.855469 27.3125 33.527344 C 27.3125 33.714844 27.304688 33.902344 27.316406 34.089844 C 27.347656 34.65625 27.707031 35.039062 28.203125 35.050781 C 28.71875 35.0625 29.121094 34.667969 29.128906 34.082031 C 29.148438 33.128906 29.148438 32.175781 29.128906 31.222656 C 29.125 30.921875 29.203125 30.761719 29.496094 30.621094 C 32.621094 29.113281 34.796875 26.726562 36.007812 23.472656 C 36.109375 23.203125 36.246094 23.097656 36.53125 23.046875 C 38.417969 22.703125 39.773438 21.046875 39.769531 19.121094 C 39.769531 17.167969 38.414062 15.527344 36.492188 15.1875 C 36.21875 15.140625 36.101562 15.023438 36.007812 14.777344 C 34.621094 11.101562 32.09375 8.566406 28.421875 7.171875 C 28.175781 7.078125 28.066406 6.953125 27.996094 6.691406 C 27.523438 4.902344 25.964844 3.683594 24.167969 3.671875 C 22.375 3.660156 20.800781 4.871094 20.316406 6.65625 C 20.238281 6.945312 20.105469 7.085938 19.828125 7.195312 C 16.191406 8.578125 13.6875 11.105469 12.300781 14.734375 C 12.199219 14.996094 12.085938 15.128906 11.789062 15.175781 C 9.816406 15.480469 8.414062 17.132812 8.417969 19.121094 C 8.417969 21.105469 9.832031 22.765625 11.796875 23.0625 C 12.066406 23.105469 12.195312 23.207031 12.285156 23.464844 C 12.941406 25.300781 13.984375 26.898438 15.425781 28.308594 Z M 15.425781 28.308594 "/>
<path style=" stroke:none;fill-rule:nonzero;fill:rgb(99.607843%,100%,100%);fill-opacity:1;" d="M 0.09375 38.761719 C 0.1875 38.714844 0.28125 38.710938 0.375 38.710938 C 16.25 38.710938 32.128906 38.710938 48.050781 38.714844 C 48.09375 41.84375 48.09375 44.964844 48.09375 48.089844 C 32.09375 48.089844 16.09375 48.089844 0.09375 48.089844 C 0.09375 44.988281 0.09375 41.898438 0.09375 38.761719 M 18.195312 42.707031 C 18.203125 42.695312 18.207031 42.679688 18.21875 42.667969 C 18.226562 42.660156 18.25 42.660156 18.25 42.664062 C 18.296875 42.792969 18.351562 42.917969 18.382812 43.050781 C 18.597656 43.976562 18.808594 44.90625 19.027344 45.863281 C 19.265625 45.863281 19.488281 45.835938 19.699219 45.867188 C 20.101562 45.933594 20.234375 45.742188 20.324219 45.382812 C 20.570312 44.398438 20.851562 43.425781 21.121094 42.445312 C 21.246094 41.984375 21.375 41.523438 21.511719 41.019531 C 21.101562 41.019531 20.75 41.019531 20.382812 41.019531 C 20.144531 42.164062 19.910156 43.289062 19.675781 44.414062 C 19.636719 44.410156 19.597656 44.40625 19.5625 44.402344 C 19.320312 43.316406 19.078125 42.226562 18.839844 41.152344 C 18.441406 41.152344 18.085938 41.152344 17.722656 41.152344 C 17.476562 42.28125 17.234375 43.382812 16.996094 44.484375 C 16.964844 44.480469 16.9375 44.476562 16.90625 44.472656 C 16.664062 43.320312 16.421875 42.167969 16.179688 41.019531 C 15.777344 41.019531 15.429688 41.019531 15.042969 41.019531 C 15.078125 41.1875 15.101562 41.324219 15.140625 41.453125 C 15.460938 42.613281 15.78125 43.769531 16.101562 44.929688 C 16.386719 45.949219 16.386719 45.949219 17.441406 45.84375 C 17.457031 45.839844 17.46875 45.828125 17.519531 45.800781 C 17.738281 44.808594 17.960938 43.792969 18.195312 42.707031 M 12.035156 41.792969 C 11.566406 43.128906 11.097656 44.460938 10.617188 45.835938 C 11.015625 45.835938 11.351562 45.835938 11.703125 45.835938 C 11.757812 45.671875 11.835938 45.511719 11.859375 45.347656 C 11.917969 44.871094 12.15625 44.660156 12.640625 44.753906 C 12.714844 44.769531 12.796875 44.757812 12.875 44.757812 C 13.679688 44.757812 13.671875 44.757812 13.949219 45.53125 C 13.996094 45.660156 14.136719 45.828125 14.257812 45.847656 C 14.542969 45.894531 14.839844 45.863281 15.1875 45.863281 C 14.640625 44.308594 14.105469 42.816406 13.597656 41.3125 C 13.5 41.023438 13.335938 40.980469 13.078125 40.988281 C 12.152344 41.019531 12.394531 40.832031 12.035156 41.792969 M 22.011719 45.335938 C 22.09375 45.492188 22.160156 45.777344 22.257812 45.789062 C 22.917969 45.851562 23.59375 45.953125 24.242188 45.863281 C 24.964844 45.761719 25.367188 45.199219 25.402344 44.527344 C 25.441406 43.863281 25.164062 43.453125 24.441406 43.136719 C 24.070312 42.976562 23.675781 42.863281 23.320312 42.671875 C 23.179688 42.59375 23.027344 42.351562 23.042969 42.199219 C 23.058594 42.050781 23.253906 41.863281 23.414062 41.796875 C 23.605469 41.71875 23.84375 41.722656 24.058594 41.738281 C 24.394531 41.769531 24.722656 41.835938 25.058594 41.890625 C 25.164062 41.097656 25.160156 41.054688 24.410156 40.960938 C 23.957031 40.90625 23.472656 40.902344 23.023438 40.996094 C 22.324219 41.140625 21.925781 41.71875 21.949219 42.394531 C 21.972656 42.992188 22.304688 43.378906 22.828125 43.609375 C 23.214844 43.78125 23.628906 43.894531 23.988281 44.101562 C 24.152344 44.199219 24.308594 44.46875 24.296875 44.648438 C 24.289062 44.804688 24.058594 45 23.882812 45.074219 C 23.695312 45.15625 23.453125 45.140625 23.238281 45.121094 C 22.839844 45.085938 22.449219 45.019531 22.03125 44.960938 C 22.023438 45.070312 22.015625 45.164062 22.011719 45.335938 M 30.144531 42.863281 C 29.761719 43.472656 29.738281 44.132812 29.914062 44.804688 C 30.105469 45.539062 30.675781 45.953125 31.472656 45.964844 C 32.3125 45.976562 32.898438 45.589844 33.101562 44.835938 C 33.183594 44.527344 33.203125 44.191406 33.191406 43.867188 C 33.167969 43.160156 32.882812 42.589844 32.1875 42.316406 C 31.46875 42.035156 30.722656 42.226562 30.144531 42.863281 M 35.210938 44.296875 C 35.210938 44.808594 35.210938 45.316406 35.210938 45.828125 C 35.476562 45.828125 35.6875 45.828125 35.9375 45.828125 C 35.9375 44.414062 35.9375 43.03125 35.9375 41.59375 C 36.46875 41.59375 36.960938 41.59375 37.464844 41.59375 C 37.464844 41.375 37.464844 41.207031 37.464844 41.027344 C 36.1875 41.027344 34.933594 41.027344 33.6875 41.027344 C 33.6875 41.230469 33.6875 41.394531 33.6875 41.617188 C 34.203125 41.617188 34.695312 41.617188 35.210938 41.617188 C 35.210938 42.519531 35.210938 43.359375 35.210938 44.296875 M 28.886719 44.671875 C 28.886719 43.460938 28.886719 42.246094 28.886719 41.015625 C 28.632812 41.015625 28.4375 41.015625 28.210938 41.015625 C 28.210938 42.632812 28.210938 44.230469 28.210938 45.824219 C 28.449219 45.824219 28.65625 45.824219 28.886719 45.824219 C 28.886719 45.449219 28.886719 45.105469 28.886719 44.671875 Z M 28.886719 44.671875 "/>
<path style=" stroke:none;fill-rule:nonzero;fill:rgb(98.823529%,99.607843%,99.607843%);fill-opacity:1;" d="M 15.402344 28.285156 C 13.984375 26.898438 12.941406 25.300781 12.285156 23.464844 C 12.195312 23.207031 12.066406 23.105469 11.796875 23.0625 C 9.832031 22.765625 8.417969 21.105469 8.417969 19.121094 C 8.414062 17.132812 9.816406 15.480469 11.789062 15.175781 C 12.085938 15.128906 12.199219 14.996094 12.300781 14.734375 C 13.6875 11.105469 16.191406 8.578125 19.828125 7.195312 C 20.105469 7.085938 20.238281 6.945312 20.316406 6.65625 C 20.800781 4.871094 22.375 3.660156 24.167969 3.671875 C 25.964844 3.683594 27.523438 4.902344 27.996094 6.691406 C 28.066406 6.953125 28.175781 7.078125 28.421875 7.171875 C 32.09375 8.566406 34.621094 11.101562 36.007812 14.777344 C 36.101562 15.023438 36.21875 15.140625 36.492188 15.1875 C 38.414062 15.527344 39.769531 17.167969 39.769531 19.121094 C 39.773438 21.046875 38.417969 22.703125 36.53125 23.046875 C 36.246094 23.097656 36.109375 23.203125 36.007812 23.472656 C 34.796875 26.726562 32.621094 29.113281 29.496094 30.621094 C 29.203125 30.761719 29.125 30.921875 29.128906 31.222656 C 29.148438 32.175781 29.148438 33.128906 29.128906 34.082031 C 29.121094 34.667969 28.71875 35.0625 28.203125 35.050781 C 27.707031 35.039062 27.347656 34.65625 27.316406 34.089844 C 27.304688 33.902344 27.3125 33.714844 27.3125 33.527344 C 27.3125 32.855469 27.3125 32.1875 27.3125 31.453125 C 26.90625 31.527344 26.550781 31.605469 26.191406 31.660156 C 25.835938 31.71875 25.480469 31.753906 25.050781 31.808594 C 25.050781 32.222656 25.050781 32.636719 25.050781 33.050781 C 25.046875 33.394531 25.054688 33.738281 25.046875 34.082031 C 25.03125 34.660156 24.644531 35.066406 24.128906 35.050781 C 23.628906 35.039062 23.257812 34.644531 23.25 34.085938 C 23.238281 33.339844 23.246094 32.59375 23.246094 31.828125 C 22.492188 31.707031 21.773438 31.59375 21.003906 31.46875 C 21.003906 32.34375 21.007812 33.195312 21 34.050781 C 20.996094 34.605469 20.683594 34.980469 20.203125 35.042969 C 19.675781 35.113281 19.214844 34.703125 19.203125 34.117188 C 19.1875 33.152344 19.1875 32.183594 19.207031 31.214844 C 19.210938 30.921875 19.121094 30.769531 18.851562 30.648438 C 17.574219 30.070312 16.4375 29.277344 15.402344 28.285156 M 15.277344 13.171875 C 14.867188 13.929688 14.453125 14.6875 14.03125 15.457031 C 15.171875 16.070312 15.871094 16.890625 16.230469 18 C 16.265625 18.101562 16.488281 18.191406 16.625 18.191406 C 17.6875 18.207031 18.75 18.199219 19.8125 18.203125 C 20.695312 18.203125 21.003906 18.507812 21.003906 19.378906 C 21.003906 22.53125 21.003906 25.6875 21.003906 28.84375 C 21.003906 29.027344 21.003906 29.210938 21.003906 29.4375 C 21.761719 29.582031 22.472656 29.714844 23.203125 29.851562 C 23.226562 29.714844 23.242188 29.65625 23.242188 29.59375 C 23.246094 23.691406 23.242188 17.789062 23.253906 11.882812 C 23.253906 11.609375 23.109375 11.558594 22.902344 11.488281 C 21.847656 11.125 21.078125 10.433594 20.574219 9.441406 C 20.527344 9.347656 20.472656 9.253906 20.402344 9.128906 C 18.28125 9.941406 16.59375 11.265625 15.277344 13.171875 M 26.890625 29.46875 C 27.253906 29.441406 27.320312 29.226562 27.320312 28.894531 C 27.308594 25.738281 27.3125 22.585938 27.3125 19.429688 C 27.3125 18.5 27.617188 18.203125 28.554688 18.203125 C 29.554688 18.199219 30.554688 18.195312 31.554688 18.207031 C 31.808594 18.210938 31.902344 18.117188 32.023438 17.886719 C 32.332031 17.300781 32.683594 16.730469 33.09375 16.210938 C 33.335938 15.90625 33.71875 15.714844 34.058594 15.453125 C 32.886719 12.480469 30.84375 10.386719 27.859375 9.164062 C 27.355469 10.277344 26.59375 11.074219 25.464844 11.449219 C 25.109375 11.566406 25.039062 11.742188 25.039062 12.085938 C 25.050781 17.816406 25.046875 23.550781 25.046875 29.28125 C 25.046875 29.445312 25.046875 29.609375 25.046875 29.839844 C 25.6875 29.714844 26.253906 29.605469 26.890625 29.46875 M 19.199219 21.234375 C 19.199219 20.851562 19.199219 20.464844 19.199219 20.035156 C 18.441406 20.035156 17.742188 20.070312 17.046875 20.023438 C 16.519531 19.992188 16.140625 20.066406 16.050781 20.671875 C 16.03125 20.804688 15.9375 20.925781 15.871094 21.050781 C 15.464844 21.816406 14.828125 22.351562 14.0625 22.773438 C 15.046875 25.363281 16.710938 27.304688 19.199219 28.664062 C 19.199219 26.152344 19.199219 23.742188 19.199219 21.234375 M 30.832031 27.410156 C 32.335938 26.15625 33.421875 24.613281 34.097656 22.75 C 33.019531 22.167969 32.300781 21.34375 31.957031 20.210938 C 31.9375 20.140625 31.835938 20.046875 31.769531 20.046875 C 30.902344 20.035156 30.035156 20.039062 29.160156 20.039062 C 29.160156 22.890625 29.160156 25.679688 29.160156 28.59375 C 29.746094 28.179688 30.261719 27.816406 30.832031 27.410156 M 25.902344 6.402344 C 25.152344 5.488281 24.066406 5.242188 23.109375 5.769531 C 22.1875 6.277344 21.75 7.382812 22.097656 8.375 C 22.382812 9.195312 22.960938 9.707031 23.820312 9.835938 C 24.71875 9.96875 25.460938 9.644531 25.957031 8.878906 C 26.472656 8.085938 26.441406 7.265625 25.902344 6.402344 M 14.550781 19 C 14.484375 18.066406 14.011719 17.40625 13.148438 17.082031 C 12.324219 16.769531 11.550781 16.929688 10.898438 17.539062 C 10.175781 18.21875 10.015625 19.285156 10.484375 20.15625 C 10.945312 21.011719 11.910156 21.460938 12.855469 21.253906 C 13.855469 21.035156 14.5 20.210938 14.550781 19 M 35.605469 21.289062 C 37.171875 21.453125 38.421875 19.847656 37.8125 18.3125 C 37.417969 17.324219 36.398438 16.769531 35.355469 16.976562 C 34.355469 17.171875 33.625 18.089844 33.632812 19.132812 C 33.640625 20.234375 34.367188 21.0625 35.605469 21.289062 Z M 35.605469 21.289062 "/>
<path style=" stroke:none;fill-rule:nonzero;fill:rgb(3.137255%,63.921569%,79.215686%);fill-opacity:1;" d="M 18.1875 42.738281 C 17.960938 43.792969 17.738281 44.808594 17.519531 45.800781 C 17.46875 45.828125 17.457031 45.839844 17.441406 45.84375 C 16.386719 45.949219 16.386719 45.949219 16.101562 44.929688 C 15.78125 43.769531 15.460938 42.613281 15.140625 41.453125 C 15.101562 41.324219 15.078125 41.1875 15.042969 41.019531 C 15.429688 41.019531 15.777344 41.019531 16.179688 41.019531 C 16.421875 42.167969 16.664062 43.320312 16.90625 44.472656 C 16.9375 44.476562 16.964844 44.480469 16.996094 44.484375 C 17.234375 43.382812 17.476562 42.28125 17.722656 41.152344 C 18.085938 41.152344 18.441406 41.152344 18.839844 41.152344 C 19.078125 42.226562 19.320312 43.316406 19.5625 44.402344 C 19.597656 44.40625 19.636719 44.410156 19.675781 44.414062 C 19.910156 43.289062 20.144531 42.164062 20.382812 41.019531 C 20.75 41.019531 21.101562 41.019531 21.511719 41.019531 C 21.375 41.523438 21.246094 41.984375 21.121094 42.445312 C 20.851562 43.425781 20.570312 44.398438 20.324219 45.382812 C 20.234375 45.742188 20.101562 45.933594 19.699219 45.867188 C 19.488281 45.835938 19.265625 45.863281 19.027344 45.863281 C 18.808594 44.90625 18.597656 43.976562 18.382812 43.050781 C 18.351562 42.917969 18.296875 42.792969 18.25 42.664062 C 18.25 42.660156 18.226562 42.660156 18.21875 42.667969 C 18.207031 42.679688 18.203125 42.695312 18.1875 42.738281 Z M 18.1875 42.738281 "/>
<path style=" stroke:none;fill-rule:nonzero;fill:rgb(3.137255%,63.921569%,79.215686%);fill-opacity:1;" d="M 12.046875 41.757812 C 12.394531 40.832031 12.152344 41.019531 13.078125 40.988281 C 13.335938 40.980469 13.5 41.023438 13.597656 41.3125 C 14.105469 42.816406 14.640625 44.308594 15.1875 45.863281 C 14.839844 45.863281 14.542969 45.894531 14.257812 45.847656 C 14.136719 45.828125 13.996094 45.660156 13.949219 45.53125 C 13.671875 44.757812 13.679688 44.757812 12.875 44.757812 C 12.796875 44.757812 12.714844 44.769531 12.640625 44.753906 C 12.15625 44.660156 11.917969 44.871094 11.859375 45.347656 C 11.835938 45.511719 11.757812 45.671875 11.703125 45.835938 C 11.351562 45.835938 11.015625 45.835938 10.617188 45.835938 C 11.097656 44.460938 11.566406 43.128906 12.046875 41.757812 M 13.078125 42.664062 C 13.019531 42.488281 12.957031 42.308594 12.855469 42.003906 C 12.640625 42.734375 12.460938 43.332031 12.273438 43.964844 C 12.679688 43.964844 13.042969 43.964844 13.457031 43.964844 C 13.332031 43.53125 13.21875 43.132812 13.078125 42.664062 Z M 13.078125 42.664062 "/>
<path style=" stroke:none;fill-rule:nonzero;fill:rgb(3.137255%,63.921569%,79.215686%);fill-opacity:1;" d="M 22.011719 45.296875 C 22.015625 45.164062 22.023438 45.070312 22.03125 44.960938 C 22.449219 45.019531 22.839844 45.085938 23.238281 45.121094 C 23.453125 45.140625 23.695312 45.15625 23.882812 45.074219 C 24.058594 45 24.289062 44.804688 24.296875 44.648438 C 24.308594 44.46875 24.152344 44.199219 23.988281 44.101562 C 23.628906 43.894531 23.214844 43.78125 22.828125 43.609375 C 22.304688 43.378906 21.972656 42.992188 21.949219 42.394531 C 21.925781 41.71875 22.324219 41.140625 23.023438 40.996094 C 23.472656 40.902344 23.957031 40.90625 24.410156 40.960938 C 25.160156 41.054688 25.164062 41.097656 25.058594 41.890625 C 24.722656 41.835938 24.394531 41.769531 24.058594 41.738281 C 23.84375 41.722656 23.605469 41.71875 23.414062 41.796875 C 23.253906 41.863281 23.058594 42.050781 23.042969 42.199219 C 23.027344 42.351562 23.179688 42.59375 23.320312 42.671875 C 23.675781 42.863281 24.070312 42.976562 24.441406 43.136719 C 25.164062 43.453125 25.441406 43.863281 25.402344 44.527344 C 25.367188 45.199219 24.964844 45.761719 24.242188 45.863281 C 23.59375 45.953125 22.917969 45.851562 22.257812 45.789062 C 22.160156 45.777344 22.09375 45.492188 22.011719 45.296875 Z M 22.011719 45.296875 "/>
<path style=" stroke:none;fill-rule:nonzero;fill:rgb(4.313725%,64.705882%,79.607843%);fill-opacity:1;" d="M 30.167969 42.835938 C 30.722656 42.226562 31.46875 42.035156 32.1875 42.316406 C 32.882812 42.589844 33.167969 43.160156 33.191406 43.867188 C 33.203125 44.191406 33.183594 44.527344 33.101562 44.835938 C 32.898438 45.589844 32.3125 45.976562 31.472656 45.964844 C 30.675781 45.953125 30.105469 45.539062 29.914062 44.804688 C 29.738281 44.132812 29.761719 43.472656 30.167969 42.835938 M 31.308594 45.382812 C 31.785156 45.441406 32.25 45.351562 32.355469 44.84375 C 32.457031 44.359375 32.472656 43.820312 32.359375 43.34375 C 32.214844 42.742188 31.378906 42.570312 30.902344 42.972656 C 30.261719 43.511719 30.472656 45.027344 31.308594 45.382812 Z M 31.308594 45.382812 "/>
<path style=" stroke:none;fill-rule:nonzero;fill:rgb(4.313725%,64.705882%,79.607843%);fill-opacity:1;" d="M 35.210938 44.25 C 35.210938 43.359375 35.210938 42.519531 35.210938 41.617188 C 34.695312 41.617188 34.203125 41.617188 33.6875 41.617188 C 33.6875 41.394531 33.6875 41.230469 33.6875 41.027344 C 34.933594 41.027344 36.1875 41.027344 37.464844 41.027344 C 37.464844 41.207031 37.464844 41.375 37.464844 41.59375 C 36.960938 41.59375 36.46875 41.59375 35.9375 41.59375 C 35.9375 43.03125 35.9375 44.414062 35.9375 45.828125 C 35.6875 45.828125 35.476562 45.828125 35.210938 45.828125 C 35.210938 45.316406 35.210938 44.808594 35.210938 44.25 Z M 35.210938 44.25 "/>
<path style=" stroke:none;fill-rule:nonzero;fill:rgb(0.784314%,63.529412%,78.823529%);fill-opacity:1;" d="M 28.886719 44.71875 C 28.886719 45.105469 28.886719 45.449219 28.886719 45.824219 C 28.65625 45.824219 28.449219 45.824219 28.210938 45.824219 C 28.210938 44.230469 28.210938 42.632812 28.210938 41.015625 C 28.4375 41.015625 28.632812 41.015625 28.886719 41.015625 C 28.886719 42.246094 28.886719 43.460938 28.886719 44.71875 Z M 28.886719 44.71875 "/>
<path style=" stroke:none;fill-rule:nonzero;fill:rgb(0.784314%,63.529412%,78.823529%);fill-opacity:1;" d="M 15.296875 13.144531 C 16.59375 11.265625 18.28125 9.941406 20.402344 9.128906 C 20.472656 9.253906 20.527344 9.347656 20.574219 9.441406 C 21.078125 10.433594 21.847656 11.125 22.902344 11.488281 C 23.109375 11.558594 23.253906 11.609375 23.253906 11.882812 C 23.242188 17.789062 23.246094 23.691406 23.242188 29.59375 C 23.242188 29.65625 23.226562 29.714844 23.203125 29.851562 C 22.472656 29.714844 21.761719 29.582031 21.003906 29.4375 C 21.003906 29.210938 21.003906 29.027344 21.003906 28.84375 C 21.003906 25.6875 21.003906 22.53125 21.003906 19.378906 C 21.003906 18.507812 20.695312 18.203125 19.8125 18.203125 C 18.75 18.199219 17.6875 18.207031 16.625 18.191406 C 16.488281 18.191406 16.265625 18.101562 16.230469 18 C 15.871094 16.890625 15.171875 16.070312 14.03125 15.457031 C 14.453125 14.6875 14.867188 13.929688 15.296875 13.144531 Z M 15.296875 13.144531 "/>
<path style=" stroke:none;fill-rule:nonzero;fill:rgb(0.784314%,63.529412%,78.823529%);fill-opacity:1;" d="M 26.855469 29.480469 C 26.253906 29.605469 25.6875 29.714844 25.046875 29.839844 C 25.046875 29.609375 25.046875 29.445312 25.046875 29.28125 C 25.046875 23.550781 25.050781 17.816406 25.039062 12.085938 C 25.039062 11.742188 25.109375 11.566406 25.464844 11.449219 C 26.59375 11.074219 27.355469 10.277344 27.859375 9.164062 C 30.84375 10.386719 32.886719 12.480469 34.058594 15.453125 C 33.71875 15.714844 33.335938 15.90625 33.09375 16.210938 C 32.683594 16.730469 32.332031 17.300781 32.023438 17.886719 C 31.902344 18.117188 31.808594 18.210938 31.554688 18.207031 C 30.554688 18.195312 29.554688 18.199219 28.554688 18.203125 C 27.617188 18.203125 27.3125 18.5 27.3125 19.429688 C 27.3125 22.585938 27.308594 25.738281 27.320312 28.894531 C 27.320312 29.226562 27.253906 29.441406 26.855469 29.480469 Z M 26.855469 29.480469 "/>
<path style=" stroke:none;fill-rule:nonzero;fill:rgb(1.176471%,63.529412%,79.215686%);fill-opacity:1;" d="M 19.199219 21.28125 C 19.199219 23.742188 19.199219 26.152344 19.199219 28.664062 C 16.710938 27.304688 15.046875 25.363281 14.0625 22.773438 C 14.828125 22.351562 15.464844 21.816406 15.871094 21.050781 C 15.9375 20.925781 16.03125 20.804688 16.050781 20.671875 C 16.140625 20.066406 16.519531 19.992188 17.046875 20.023438 C 17.742188 20.070312 18.441406 20.035156 19.199219 20.035156 C 19.199219 20.464844 19.199219 20.851562 19.199219 21.28125 Z M 19.199219 21.28125 "/>
<path style=" stroke:none;fill-rule:nonzero;fill:rgb(0.392157%,63.137255%,78.823529%);fill-opacity:1;" d="M 30.804688 27.433594 C 30.261719 27.816406 29.746094 28.179688 29.160156 28.59375 C 29.160156 25.679688 29.160156 22.890625 29.160156 20.039062 C 30.035156 20.039062 30.902344 20.035156 31.769531 20.046875 C 31.835938 20.046875 31.9375 20.140625 31.957031 20.210938 C 32.300781 21.34375 33.019531 22.167969 34.097656 22.75 C 33.421875 24.613281 32.335938 26.15625 30.804688 27.433594 Z M 30.804688 27.433594 "/>
<path style=" stroke:none;fill-rule:nonzero;fill:rgb(1.176471%,63.529412%,79.215686%);fill-opacity:1;" d="M 25.925781 6.429688 C 26.441406 7.265625 26.472656 8.085938 25.957031 8.878906 C 25.460938 9.644531 24.71875 9.96875 23.820312 9.835938 C 22.960938 9.707031 22.382812 9.195312 22.097656 8.375 C 21.75 7.382812 22.1875 6.277344 23.109375 5.769531 C 24.066406 5.242188 25.152344 5.488281 25.925781 6.429688 Z M 25.925781 6.429688 "/>
<path style=" stroke:none;fill-rule:nonzero;fill:rgb(1.176471%,63.529412%,78.823529%);fill-opacity:1;" d="M 14.554688 19.039062 C 14.5 20.210938 13.855469 21.035156 12.855469 21.253906 C 11.910156 21.460938 10.945312 21.011719 10.484375 20.15625 C 10.015625 19.285156 10.175781 18.21875 10.898438 17.539062 C 11.550781 16.929688 12.324219 16.769531 13.148438 17.082031 C 14.011719 17.40625 14.484375 18.066406 14.554688 19.039062 Z M 14.554688 19.039062 "/>
<path style=" stroke:none;fill-rule:nonzero;fill:rgb(1.176471%,63.529412%,78.823529%);fill-opacity:1;" d="M 35.5625 21.285156 C 34.367188 21.0625 33.640625 20.234375 33.632812 19.132812 C 33.625 18.089844 34.355469 17.171875 35.355469 16.976562 C 36.398438 16.769531 37.417969 17.324219 37.8125 18.3125 C 38.421875 19.847656 37.171875 21.453125 35.5625 21.285156 Z M 35.5625 21.285156 "/>
<path style=" stroke:none;fill-rule:nonzero;fill:rgb(97.647059%,99.215686%,99.607843%);fill-opacity:1;" d="M 13.089844 42.699219 C 13.21875 43.132812 13.332031 43.53125 13.457031 43.964844 C 13.042969 43.964844 12.679688 43.964844 12.273438 43.964844 C 12.460938 43.332031 12.640625 42.734375 12.855469 42.003906 C 12.957031 42.308594 13.019531 42.488281 13.089844 42.699219 Z M 13.089844 42.699219 "/>
<path style=" stroke:none;fill-rule:nonzero;fill:rgb(97.647059%,99.215686%,99.607843%);fill-opacity:1;" d="M 31.269531 45.378906 C 30.472656 45.027344 30.261719 43.511719 30.902344 42.972656 C 31.378906 42.570312 32.214844 42.742188 32.359375 43.34375 C 32.472656 43.820312 32.457031 44.359375 32.355469 44.84375 C 32.25 45.351562 31.785156 45.441406 31.269531 45.378906 Z M 31.269531 45.378906 "/>
</g>
</svg>
