<svg version="1.1" id="Layer_1" xmlns="http://www.w3.org/2000/svg" xmlns:xlink="http://www.w3.org/1999/xlink" x="0px" y="0px"
	 width="100%" viewBox="0 0 297 226" enable-background="new 0 0 297 226" xml:space="preserve">
<path fill="#FEFDFD" opacity="1.000000" stroke="none" 
	d="
M161.000000,227.000000 
	C107.333344,227.000000 54.166679,227.000000 1.000014,227.000000 
	C1.000010,151.666687 1.000010,76.333366 1.000005,1.000035 
	C99.999969,1.000023 198.999939,1.000023 297.999939,1.000011 
	C297.999939,76.333298 297.999939,151.666595 297.999969,226.999939 
	C252.500000,227.000000 207.000000,227.000000 161.000000,227.000000 
M91.290337,157.837708 
	C91.527733,158.542023 91.765129,159.246323 92.708649,160.338181 
	C93.503021,161.870132 94.958435,163.390350 94.985870,164.935913 
	C95.183029,176.040558 95.036934,187.151001 95.171989,198.257492 
	C95.185501,199.368393 96.347839,200.465332 96.976997,201.568741 
	C97.679512,200.785965 98.382019,200.003174 99.500854,198.542725 
	C100.016533,198.435379 100.532211,198.328033 101.441483,198.856415 
	C107.231163,203.477509 113.344734,203.734924 118.664688,199.581604 
	C125.229134,194.456726 126.574699,181.271515 121.260490,174.145111 
	C116.976135,168.399750 107.354462,166.956711 101.570465,170.818207 
	C101.333145,168.735611 101.213554,166.630692 100.824280,164.576889 
	C100.459846,162.654190 99.809669,160.785660 99.055511,158.392242 
	C98.632774,158.138809 98.210037,157.885361 97.280884,157.161087 
	C95.426643,157.365524 93.572411,157.569962 91.875565,157.854538 
	C91.875565,157.854538 91.764656,157.717072 91.290337,157.837708 
M76.368065,201.407730 
	C77.296204,200.624954 78.224350,199.842178 79.722031,198.835754 
	C80.075089,198.345123 80.428146,197.854492 81.374619,197.383545 
	C82.314911,200.329544 83.896858,202.445267 87.415443,201.669693 
	C88.444473,201.442871 89.387642,200.826538 90.370171,200.388733 
	C89.757256,199.559784 89.080025,198.769958 88.546310,197.892822 
	C87.719093,196.533310 86.417328,195.151901 86.322739,193.713608 
	C85.996834,188.757736 86.288124,183.762512 85.995819,178.802811 
	C85.746323,174.569504 83.898491,171.033325 79.531052,169.728470 
	C74.277321,168.158829 69.008980,168.015213 64.403038,171.593460 
	C63.547947,172.257767 63.176300,173.857620 63.082497,175.064636 
	C63.030762,175.730331 63.910236,176.902451 64.570541,177.074020 
	C65.311462,177.266510 66.575020,176.847427 67.101593,176.247299 
	C72.131340,170.515060 78.416946,171.231583 81.510658,178.811996 
	C81.366417,179.883469 81.222176,180.954941 80.165474,181.955826 
	C77.449280,182.138916 74.733093,182.322006 71.345863,182.436523 
	C70.315430,182.857437 69.284996,183.278351 67.581810,183.591476 
	C61.105412,186.801163 59.830650,188.887558 60.502010,195.580826 
	C60.934296,196.263397 61.366581,196.945969 61.885109,198.276047 
	C63.957268,199.416534 66.029427,200.557022 68.660942,202.159103 
	C71.023758,201.870316 73.386566,201.581528 76.368065,201.407730 
M113.177864,131.676636 
	C116.685776,137.037354 119.999001,138.310181 125.235992,135.714172 
	C149.029022,123.919876 172.778030,112.036438 196.504990,100.109688 
	C199.347214,98.680992 201.461975,96.852173 201.517563,92.903137 
	C201.577560,88.641106 200.097961,86.023659 196.462585,84.214386 
	C172.825241,72.450378 149.220718,60.620220 125.558205,48.907162 
	C120.001854,46.156738 116.473747,47.478363 112.893303,53.911003 
	C112.834770,75.804138 112.754509,97.697250 112.738342,119.590416 
	C112.735542,123.388405 113.003754,127.186584 113.177864,131.676636 
M241.717957,174.424866 
	C242.370071,171.969482 243.022202,169.514099 243.902435,166.199753 
	C244.489182,167.541733 244.778275,168.046616 244.937195,168.589600 
	C247.853897,178.555939 250.670959,188.553055 253.761871,198.464828 
	C254.165466,199.759079 256.017792,201.518585 257.094421,201.448761 
	C258.377625,201.365540 260.244965,199.753754 260.646484,198.434982 
	C262.384247,192.727127 263.246033,186.729996 265.242859,181.129166 
	C267.852081,173.810760 267.188599,165.273468 273.217773,159.172318 
	C273.518494,158.867981 272.942078,157.696869 272.815521,157.118652 
	C268.375153,156.117722 266.258240,157.971802 265.390320,161.914520 
	C264.356018,166.613098 263.165009,171.279388 261.944611,175.934174 
	C260.525635,181.346313 259.001251,186.730804 257.522614,192.127289 
	C255.951630,190.927170 255.539673,190.033875 255.292633,189.097076 
	C252.836807,179.784515 250.505829,170.437073 247.877167,161.173965 
	C247.432388,159.606628 245.739243,158.393585 244.622879,157.016861 
	C243.470505,158.368866 241.897766,159.548325 241.256653,161.110214 
	C240.066162,164.010498 239.427872,167.136429 238.544479,170.163986 
	C236.310043,177.821960 234.067184,185.477509 231.415649,194.542725 
	C230.578903,192.291824 230.232590,191.567322 230.037674,190.804123 
	C227.900711,182.436615 225.790527,174.062271 223.665344,165.691742 
	C223.134384,163.600388 222.984329,161.261246 221.894043,159.513229 
	C221.094635,158.231583 219.112396,157.537704 217.518250,156.977982 
	C216.908676,156.763962 215.912170,157.651947 215.091995,158.037735 
	C215.805801,159.181213 216.603348,160.282196 217.210968,161.479553 
	C217.881485,162.800827 218.548447,164.165619 218.922775,165.588837 
	C221.752686,176.348114 224.417770,187.152176 227.397949,197.868927 
	C227.808533,199.345398 229.659424,201.397446 230.862579,201.410400 
	C232.135498,201.424088 234.119568,199.548462 234.601578,198.101242 
	C237.118011,190.545837 239.255371,182.864182 241.717957,174.424866 
M173.315155,193.409790 
	C173.314789,183.918167 173.266495,174.426041 173.368423,164.935516 
	C173.382843,163.592743 173.889832,162.108887 174.604156,160.961288 
	C175.313858,159.821075 176.572723,159.022690 177.590775,158.074387 
	C176.134338,157.620346 174.704041,157.013840 173.213577,156.758377 
	C171.919418,156.536575 170.556717,156.689209 169.225067,156.715393 
	C152.081802,157.052399 156.215363,154.032135 150.015106,170.343307 
	C147.050781,178.141647 144.150558,185.964371 140.898041,194.638138 
	C140.011841,192.957748 139.567459,192.302505 139.300949,191.581512 
	C135.621124,181.626633 131.999115,171.650208 128.268585,161.714478 
	C127.706467,160.217346 126.977180,158.383209 125.756996,157.648087 
	C124.592499,156.946472 122.686020,157.476395 121.105705,157.464951 
	C121.535591,158.699951 121.865822,159.981842 122.419579,161.158554 
	C123.179802,162.773972 124.310577,164.234070 124.933632,165.891861 
	C128.844604,176.298035 132.552032,186.782410 136.606552,197.131317 
	C137.307602,198.920715 139.344070,200.186935 140.763718,201.694809 
	C142.151489,200.144730 144.110626,198.822052 144.832962,197.007141 
	C149.065094,186.373688 153.328964,175.731094 156.914520,164.871170 
	C158.731323,159.368454 162.645752,160.755096 166.194458,160.787079 
	C170.456284,160.825455 168.793564,164.368866 168.835541,166.463287 
	C169.012360,175.285278 168.929611,184.112930 168.897018,192.938339 
	C168.889511,194.971802 169.652481,197.433960 166.268417,197.839645 
	C165.691818,197.908752 165.269165,199.262070 164.775375,200.022110 
	C165.652161,200.580750 166.492798,201.537781 167.412674,201.621201 
	C169.890060,201.845825 172.412262,201.832642 174.893509,201.630020 
	C175.857635,201.551285 176.759567,200.710938 177.689819,200.217499 
	C176.933960,199.354599 176.119965,198.534958 175.437668,197.617355 
	C174.668060,196.582306 174.016998,195.459137 173.315155,193.409790 
M190.375565,174.725143 
	C190.367172,174.059326 190.352997,173.393524 190.351227,172.727692 
	C190.318207,160.349167 190.317764,160.382050 202.710693,160.667221 
	C205.034515,160.720688 207.050613,160.688034 207.249634,163.846146 
	C207.270401,164.175919 210.053833,165.000443 210.684052,164.499405 
	C212.692001,162.902924 210.873322,157.034760 208.298279,156.950729 
	C200.149948,156.684875 191.989731,156.732330 183.835236,156.797516 
	C183.155914,156.802933 182.033554,157.783279 181.935791,158.433731 
	C181.836060,159.097244 182.597137,160.112747 183.256592,160.606720 
	C183.951859,161.127594 184.972519,161.214111 185.917603,161.511322 
	C185.917603,167.539307 185.917435,173.192352 185.917648,178.845383 
	C185.917862,184.672134 186.054626,190.503220 185.870102,196.324112 
	C185.750671,200.091949 187.018570,201.876434 191.014114,201.742157 
	C196.668015,201.552124 202.339340,201.529007 207.991333,201.745193 
	C212.460846,201.916183 213.501816,199.454102 213.135193,195.790680 
	C213.043762,194.877075 212.116516,194.047089 211.573425,193.178680 
	C210.730179,193.743347 209.794876,194.210632 209.067734,194.898087 
	C208.218918,195.700623 207.584229,197.451538 206.800781,197.485046 
	C201.394211,197.716354 195.973068,197.606781 190.676941,197.606781 
	C190.676941,191.578934 190.676941,186.496277 190.676941,181.014572 
	C194.633636,181.014572 198.285156,181.221466 201.895706,180.926712 
	C203.682999,180.780807 205.394867,179.711121 207.140854,179.059387 
	C205.463135,178.336578 203.844437,177.248398 202.095596,176.965897 
	C198.278229,176.349228 194.394669,176.142273 190.375565,174.725143 
M34.273621,172.515991 
	C34.272915,169.024323 34.306866,165.532227 34.262871,162.041107 
	C34.205864,157.517685 32.115463,155.901749 27.606783,156.946136 
	C26.947411,157.098862 25.915659,157.775467 25.919992,158.200882 
	C25.928041,158.991104 26.535276,160.434006 26.958677,160.458237 
	C30.762417,160.675903 29.822388,163.453430 29.833218,165.601593 
	C29.881834,175.244995 29.849010,184.888763 29.855938,194.532410 
	C29.861019,201.604996 29.913784,201.650803 37.221874,201.657730 
	C41.212341,201.661530 45.202827,201.663147 49.193291,201.657333 
	C56.460743,201.646774 57.005905,200.974350 55.599297,191.731049 
	C53.446705,194.103241 52.054321,195.637680 50.575191,197.267700 
	C45.541351,197.267700 40.129776,197.267700 34.273540,197.267700 
	C34.273540,189.060135 34.273540,181.285446 34.273621,172.515991 
z"/>
<path fill="#FDDA24" opacity="1.000000" stroke="none" 
	d="
M113.201744,53.019157 
	C116.473747,47.478363 120.001854,46.156738 125.558205,48.907162 
	C149.220718,60.620220 172.825241,72.450378 196.462585,84.214386 
	C200.097961,86.023659 201.577560,88.641106 201.517563,92.903137 
	C201.461975,96.852173 199.347214,98.680992 196.504990,100.109688 
	C172.778030,112.036438 149.029022,123.919876 125.235992,135.714172 
	C119.999001,138.310181 116.685776,137.037354 113.545265,131.227432 
	C114.274597,129.757339 114.949913,128.737228 114.952492,127.715431 
	C115.012184,103.988983 115.024544,80.262253 114.922745,56.536098 
	C114.917709,55.361343 113.800880,54.191360 113.201744,53.019157 
M132.360672,95.469559 
	C134.796448,95.469559 137.232208,95.469559 139.923615,95.469559 
	C140.059723,97.572250 140.149765,99.023598 140.248672,100.474342 
	C140.346100,101.903366 140.452469,103.331772 140.576218,105.057632 
	C142.757919,104.958786 144.491577,104.880234 146.137451,104.805664 
	C147.291245,96.408218 147.291245,96.408218 155.996628,94.878189 
	C155.907104,93.088814 155.814606,91.239998 155.684906,88.647339 
	C148.806885,90.514725 145.580399,88.383980 146.415573,81.494789 
	C146.479691,80.965836 144.185226,79.474564 143.252609,79.673782 
	C142.108200,79.918236 140.279984,81.626816 140.410110,82.434586 
	C141.451691,88.900429 137.851364,89.652809 132.870270,89.095818 
	C132.290421,89.030983 131.666718,89.358231 130.424301,89.657776 
	C130.828262,91.701302 131.189041,93.526405 132.360672,95.469559 
z"/>
<path fill="#272727" opacity="1.000000" stroke="none" 
	d="
M241.621277,174.825653 
	C239.255371,182.864182 237.118011,190.545837 234.601578,198.101242 
	C234.119568,199.548462 232.135498,201.424088 230.862579,201.410400 
	C229.659424,201.397446 227.808533,199.345398 227.397949,197.868927 
	C224.417770,187.152176 221.752686,176.348114 218.922775,165.588837 
	C218.548447,164.165619 217.881485,162.800827 217.210968,161.479553 
	C216.603348,160.282196 215.805801,159.181213 215.091995,158.037735 
	C215.912170,157.651947 216.908676,156.763962 217.518250,156.977982 
	C219.112396,157.537704 221.094635,158.231583 221.894043,159.513229 
	C222.984329,161.261246 223.134384,163.600388 223.665344,165.691742 
	C225.790527,174.062271 227.900711,182.436615 230.037674,190.804123 
	C230.232590,191.567322 230.578903,192.291824 231.415649,194.542725 
	C234.067184,185.477509 236.310043,177.821960 238.544479,170.163986 
	C239.427872,167.136429 240.066162,164.010498 241.256653,161.110214 
	C241.897766,159.548325 243.470505,158.368866 244.622864,157.016846 
	C245.739243,158.393585 247.432388,159.606628 247.877167,161.173965 
	C250.505829,170.437073 252.836807,179.784515 255.292633,189.097076 
	C255.539673,190.033875 255.951630,190.927170 257.522614,192.127289 
	C259.001251,186.730804 260.525635,181.346313 261.944611,175.934174 
	C263.165009,171.279388 264.356018,166.613098 265.390320,161.914520 
	C266.258240,157.971802 268.375153,156.117722 272.815521,157.118652 
	C272.942078,157.696869 273.518494,158.867981 273.217773,159.172318 
	C267.188599,165.273468 267.852081,173.810760 265.242859,181.129166 
	C263.246033,186.729996 262.384247,192.727127 260.646484,198.434982 
	C260.244965,199.753754 258.377625,201.365540 257.094421,201.448761 
	C256.017792,201.518585 254.165466,199.759079 253.761871,198.464828 
	C250.670959,188.553055 247.853897,178.555939 244.937195,168.589600 
	C244.778275,168.046616 244.489182,167.541733 243.902435,166.199753 
	C243.022202,169.514099 242.370071,171.969482 241.621277,174.825653 
z"/>
<path fill="#2A2A2A" opacity="1.000000" stroke="none" 
	d="
M173.314758,193.892044 
	C174.016998,195.459137 174.668060,196.582306 175.437668,197.617355 
	C176.119965,198.534958 176.933960,199.354599 177.689819,200.217499 
	C176.759567,200.710938 175.857635,201.551285 174.893509,201.630020 
	C172.412262,201.832642 169.890060,201.845825 167.412674,201.621201 
	C166.492798,201.537781 165.652161,200.580750 164.775391,200.022110 
	C165.269165,199.262070 165.691818,197.908752 166.268417,197.839645 
	C169.652481,197.433960 168.889511,194.971802 168.897018,192.938339 
	C168.929611,184.112930 169.012360,175.285278 168.835541,166.463287 
	C168.793564,164.368866 170.456284,160.825455 166.194458,160.787079 
	C162.645752,160.755096 158.731323,159.368454 156.914520,164.871170 
	C153.328964,175.731094 149.065094,186.373688 144.832962,197.007141 
	C144.110626,198.822052 142.151489,200.144730 140.763718,201.694809 
	C139.344070,200.186935 137.307602,198.920715 136.606552,197.131317 
	C132.552032,186.782410 128.844604,176.298035 124.933632,165.891861 
	C124.310577,164.234070 123.179802,162.773972 122.419579,161.158554 
	C121.865822,159.981842 121.535591,158.699951 121.105705,157.464951 
	C122.686020,157.476395 124.592499,156.946472 125.756996,157.648087 
	C126.977180,158.383209 127.706467,160.217346 128.268585,161.714478 
	C131.999115,171.650208 135.621124,181.626633 139.300949,191.581512 
	C139.567459,192.302505 140.011841,192.957748 140.898041,194.638138 
	C144.150558,185.964371 147.050781,178.141647 150.015106,170.343307 
	C156.215363,154.032135 152.081802,157.052399 169.225067,156.715393 
	C170.556717,156.689209 171.919418,156.536575 173.213577,156.758377 
	C174.704041,157.013840 176.134338,157.620346 177.590775,158.074402 
	C176.572723,159.022690 175.313858,159.821075 174.604156,160.961288 
	C173.889832,162.108887 173.382843,163.592743 173.368423,164.935516 
	C173.266495,174.426041 173.314789,183.918167 173.314758,193.892044 
z"/>
<path fill="#282828" opacity="1.000000" stroke="none" 
	d="
M190.456863,175.246521 
	C194.394669,176.142273 198.278229,176.349228 202.095596,176.965897 
	C203.844437,177.248398 205.463135,178.336578 207.140854,179.059387 
	C205.394867,179.711121 203.682999,180.780807 201.895706,180.926712 
	C198.285156,181.221466 194.633636,181.014572 190.676941,181.014572 
	C190.676941,186.496277 190.676941,191.578934 190.676941,197.606781 
	C195.973068,197.606781 201.394211,197.716354 206.800781,197.485046 
	C207.584229,197.451538 208.218918,195.700623 209.067734,194.898087 
	C209.794876,194.210632 210.730179,193.743347 211.573425,193.178680 
	C212.116516,194.047089 213.043762,194.877075 213.135193,195.790680 
	C213.501816,199.454102 212.460846,201.916183 207.991333,201.745193 
	C202.339340,201.529007 196.668015,201.552124 191.014114,201.742157 
	C187.018570,201.876434 185.750671,200.091949 185.870102,196.324112 
	C186.054626,190.503220 185.917862,184.672134 185.917648,178.845383 
	C185.917435,173.192352 185.917603,167.539307 185.917603,161.511322 
	C184.972519,161.214111 183.951859,161.127594 183.256592,160.606720 
	C182.597137,160.112747 181.836060,159.097244 181.935791,158.433731 
	C182.033554,157.783279 183.155914,156.802933 183.835236,156.797516 
	C191.989731,156.732330 200.149948,156.684875 208.298279,156.950729 
	C210.873322,157.034760 212.692001,162.902924 210.684052,164.499405 
	C210.053833,165.000443 207.270401,164.175919 207.249634,163.846146 
	C207.050613,160.688034 205.034515,160.720688 202.710693,160.667221 
	C190.317764,160.382050 190.318207,160.349167 190.351227,172.727692 
	C190.352997,173.393524 190.367172,174.059326 190.456863,175.246521 
z"/>
<path fill="#272727" opacity="1.000000" stroke="none" 
	d="
M102.330017,171.305969 
	C107.354462,166.956711 116.976135,168.399750 121.260490,174.145111 
	C126.574699,181.271515 125.229134,194.456726 118.664688,199.581604 
	C113.344734,203.734924 107.231163,203.477509 101.218231,198.234909 
	C100.624870,197.201767 100.254768,196.790115 99.884659,196.378479 
	C99.617950,197.325775 99.351234,198.273087 99.084526,199.220383 
	C98.382019,200.003174 97.679512,200.785965 96.976997,201.568741 
	C96.347839,200.465332 95.185501,199.368393 95.171989,198.257492 
	C95.036934,187.151001 95.183029,176.040558 94.985870,164.935913 
	C94.958435,163.390350 93.503021,161.870132 92.349731,159.769226 
	C91.915428,158.705856 91.840042,158.211472 91.764656,157.717072 
	C91.764656,157.717072 91.875565,157.854538 92.298782,157.891022 
	C94.410439,157.828979 96.098862,157.730453 97.787292,157.631927 
	C98.210037,157.885361 98.632774,158.138809 99.106155,159.111786 
	C99.156799,164.408218 99.156799,168.985123 99.156799,173.562012 
	C99.536316,173.633087 99.915833,173.704147 100.295349,173.775223 
	C100.973572,172.952133 101.651794,172.129059 102.330017,171.305969 
M100.534851,179.203125 
	C100.332588,179.833572 100.096695,180.455460 99.933296,181.095825 
	C98.434395,186.970093 99.314621,192.391281 103.855186,196.587326 
	C106.793861,199.303009 110.545853,199.505981 114.032967,197.478073 
	C119.542198,194.274185 120.346008,189.016449 119.823425,183.247772 
	C119.379692,178.349411 117.175194,174.512146 112.409554,173.139709 
	C107.329498,171.676712 103.399834,173.918152 100.534851,179.203125 
z"/>
<path fill="#2B2B2B" opacity="1.000000" stroke="none" 
	d="
M72.016899,182.505112 
	C74.733093,182.322006 77.449280,182.138916 80.947861,181.937347 
	C81.667511,180.606766 81.604774,179.294632 81.542038,177.982513 
	C78.416946,171.231583 72.131340,170.515060 67.101593,176.247299 
	C66.575020,176.847427 65.311462,177.266510 64.570541,177.074020 
	C63.910236,176.902451 63.030762,175.730331 63.082497,175.064636 
	C63.176300,173.857620 63.547947,172.257767 64.403038,171.593460 
	C69.008980,168.015213 74.277321,168.158829 79.531052,169.728470 
	C83.898491,171.033325 85.746323,174.569504 85.995819,178.802811 
	C86.288124,183.762512 85.996834,188.757736 86.322739,193.713608 
	C86.417328,195.151901 87.719093,196.533310 88.546310,197.892822 
	C89.080025,198.769958 89.757256,199.559784 90.370171,200.388733 
	C89.387642,200.826538 88.444473,201.442871 87.415443,201.669693 
	C83.896858,202.445267 82.314911,200.329544 80.342163,197.194458 
	C78.818115,196.892654 78.326515,196.779938 78.024216,196.329376 
	C79.671814,192.736069 81.130104,189.480621 82.588402,186.225159 
	C82.119598,185.777145 81.650803,185.329147 81.181999,184.881149 
	C77.654938,185.364990 74.065170,185.583496 70.616356,186.398468 
	C66.094055,187.467133 63.955338,190.717560 64.961967,194.193283 
	C65.995056,197.760345 70.172836,199.705063 74.310196,198.412766 
	C75.552116,198.024857 76.671272,197.243896 77.907349,196.998779 
	C78.362854,197.922821 78.757675,198.491119 79.152496,199.059402 
	C78.224350,199.842178 77.296204,200.624954 75.600357,201.266922 
	C72.588966,201.316589 70.345276,201.507050 68.101585,201.697510 
	C66.029427,200.557022 63.957268,199.416534 61.885841,197.624329 
	C61.465153,196.309067 61.043732,195.645538 60.622314,194.982010 
	C59.830650,188.887558 61.105412,186.801163 68.296165,183.728241 
	C70.012642,183.411697 71.014771,182.958405 72.016899,182.505112 
z"/>
<path fill="#1F1F1F" opacity="1.000000" stroke="none" 
	d="
M34.273582,173.013367 
	C34.273540,181.285446 34.273540,189.060135 34.273540,197.267700 
	C40.129776,197.267700 45.541351,197.267700 50.575191,197.267700 
	C52.054321,195.637680 53.446705,194.103241 55.599297,191.731049 
	C57.005905,200.974350 56.460743,201.646774 49.193291,201.657333 
	C45.202827,201.663147 41.212341,201.661530 37.221874,201.657730 
	C29.913784,201.650803 29.861019,201.604996 29.855938,194.532410 
	C29.849010,184.888763 29.881834,175.244995 29.833218,165.601593 
	C29.822388,163.453430 30.762417,160.675903 26.958677,160.458237 
	C26.535276,160.434006 25.928041,158.991104 25.919992,158.200882 
	C25.915659,157.775467 26.947411,157.098862 27.606783,156.946136 
	C32.115463,155.901749 34.205864,157.517685 34.262871,162.041107 
	C34.306866,165.532227 34.272915,169.024323 34.273582,173.013367 
z"/>
<path fill="#FFDA17" opacity="1.000000" stroke="none" 
	d="
M113.047523,53.465080 
	C113.800880,54.191360 114.917709,55.361343 114.922745,56.536098 
	C115.024544,80.262253 115.012184,103.988983 114.952492,127.715431 
	C114.949913,128.737228 114.274597,129.757339 113.529724,130.881454 
	C113.003754,127.186584 112.735542,123.388405 112.738342,119.590416 
	C112.754509,97.697250 112.834770,75.804138 113.047523,53.465080 
z"/>
<path fill="#BDBDBD" opacity="1.000000" stroke="none" 
	d="
M101.950241,171.062088 
	C101.651794,172.129059 100.973572,172.952133 100.295349,173.775223 
	C99.915833,173.704147 99.536316,173.633087 99.156799,173.562012 
	C99.156799,168.985123 99.156799,164.408218 99.221024,159.362305 
	C99.809669,160.785660 100.459846,162.654190 100.824280,164.576889 
	C101.213554,166.630692 101.333145,168.735611 101.950241,171.062088 
z"/>
<path fill="#313131" opacity="1.000000" stroke="none" 
	d="
M68.381264,201.928314 
	C70.345276,201.507050 72.588966,201.316589 75.291016,201.209427 
	C73.386566,201.581528 71.023758,201.870316 68.381264,201.928314 
z"/>
<path fill="#2E2E2E" opacity="1.000000" stroke="none" 
	d="
M97.534088,157.396515 
	C96.098862,157.730453 94.410439,157.828979 92.220093,157.850952 
	C93.572411,157.569962 95.426643,157.365524 97.534088,157.396515 
z"/>
<path fill="#313131" opacity="1.000000" stroke="none" 
	d="
M81.526352,178.397247 
	C81.604774,179.294632 81.667511,180.606766 81.404099,181.972656 
	C81.222176,180.954941 81.366417,179.883469 81.526352,178.397247 
z"/>
<path fill="#313131" opacity="1.000000" stroke="none" 
	d="
M71.681381,182.470825 
	C71.014771,182.958405 70.012642,183.411697 68.632538,183.782135 
	C69.284996,183.278351 70.315430,182.857437 71.681381,182.470825 
z"/>
<path fill="#2E2E2E" opacity="1.000000" stroke="none" 
	d="
M99.292694,198.881561 
	C99.351234,198.273087 99.617950,197.325775 99.884659,196.378479 
	C100.254768,196.790115 100.624870,197.201767 101.021439,197.917053 
	C100.532211,198.328033 100.016533,198.435379 99.292694,198.881561 
z"/>
<path fill="#2E2E2E" opacity="1.000000" stroke="none" 
	d="
M91.527496,157.777390 
	C91.840042,158.211472 91.915428,158.705856 91.996658,159.575439 
	C91.765129,159.246323 91.527733,158.542023 91.527496,157.777390 
z"/>
<path fill="#313131" opacity="1.000000" stroke="none" 
	d="
M60.562160,195.281418 
	C61.043732,195.645538 61.465153,196.309067 61.842720,197.300568 
	C61.366581,196.945969 60.934296,196.263397 60.562160,195.281418 
z"/>
<path fill="#313131" opacity="1.000000" stroke="none" 
	d="
M79.437256,198.947571 
	C78.757675,198.491119 78.362854,197.922821 77.941422,197.032700 
	C77.914803,196.710861 77.834915,196.667206 77.834915,196.667206 
	C78.326515,196.779938 78.818115,196.892654 80.045456,197.184631 
	C80.428146,197.854492 80.075089,198.345123 79.437256,198.947571 
z"/>
<path fill="#1B190A" opacity="1.000000" stroke="none" 
	d="
M131.955246,95.410530 
	C131.189041,93.526405 130.828262,91.701302 130.424301,89.657776 
	C131.666718,89.358231 132.290421,89.030983 132.870270,89.095818 
	C137.851364,89.652809 141.451691,88.900429 140.410110,82.434586 
	C140.279984,81.626816 142.108200,79.918236 143.252609,79.673782 
	C144.185226,79.474564 146.479691,80.965836 146.415573,81.494789 
	C145.580399,88.383980 148.806885,90.514725 155.684906,88.647339 
	C155.814606,91.239998 155.907104,93.088814 155.996628,94.878189 
	C147.291245,96.408218 147.291245,96.408218 146.137451,104.805664 
	C144.491577,104.880234 142.757919,104.958786 140.576218,105.057632 
	C140.452469,103.331772 140.346100,101.903366 140.248672,100.474342 
	C140.149765,99.023598 140.059723,97.572250 139.923615,95.469559 
	C137.232208,95.469559 134.796448,95.469559 131.955246,95.410530 
z"/>
<path fill="#F3F3F3" opacity="1.000000" stroke="none" 
	d="
M100.675583,178.845093 
	C103.399834,173.918152 107.329498,171.676712 112.409554,173.139709 
	C117.175194,174.512146 119.379692,178.349411 119.823425,183.247772 
	C120.346008,189.016449 119.542198,194.274185 114.032967,197.478073 
	C110.545853,199.505981 106.793861,199.303009 103.855186,196.587326 
	C99.314621,192.391281 98.434395,186.970093 99.933296,181.095825 
	C100.096695,180.455460 100.332588,179.833572 100.675583,178.845093 
z"/>
<path fill="#ECECEC" opacity="1.000000" stroke="none" 
	d="
M78.024216,196.329376 
	C77.834915,196.667206 77.914803,196.710861 77.880737,196.676941 
	C76.671272,197.243896 75.552116,198.024857 74.310196,198.412766 
	C70.172836,199.705063 65.995056,197.760345 64.961967,194.193283 
	C63.955338,190.717560 66.094055,187.467133 70.616356,186.398468 
	C74.065170,185.583496 77.654938,185.364990 81.181999,184.881149 
	C81.650803,185.329147 82.119598,185.777145 82.588402,186.225159 
	C81.130104,189.480621 79.671814,192.736069 78.024216,196.329376 
z"/>
</svg>