<?xml version="1.0" encoding="UTF-8"?>
<svg xmlns="http://www.w3.org/2000/svg" xmlns:xlink="http://www.w3.org/1999/xlink" width="48px" height="48px" viewBox="0 0 48 48" version="1.1">
<g id="surface1">
<path style=" stroke:none;fill-rule:nonzero;fill:rgb(99.607843%,99.215686%,99.215686%);fill-opacity:1;" d="M 26.019531 48.210938 C 17.347656 48.210938 8.753906 48.210938 0.160156 48.210938 C 0.160156 32.210938 0.160156 16.210938 0.160156 0.210938 C 16.160156 0.210938 32.160156 0.210938 48.160156 0.210938 C 48.160156 16.210938 48.160156 32.210938 48.160156 48.210938 C 40.808594 48.210938 33.453125 48.210938 26.019531 48.210938 M 14.753906 33.523438 C 14.792969 33.671875 14.832031 33.820312 14.984375 34.054688 C 15.113281 34.378906 15.347656 34.703125 15.351562 35.03125 C 15.382812 37.390625 15.359375 39.75 15.382812 42.109375 C 15.382812 42.34375 15.570312 42.578125 15.671875 42.8125 C 15.785156 42.644531 15.898438 42.480469 16.082031 42.167969 C 16.164062 42.144531 16.246094 42.121094 16.394531 42.234375 C 17.332031 43.214844 18.316406 43.269531 19.179688 42.390625 C 20.238281 41.300781 20.457031 38.5 19.597656 36.988281 C 18.90625 35.765625 17.351562 35.460938 16.414062 36.28125 C 16.378906 35.835938 16.359375 35.390625 16.292969 34.953125 C 16.234375 34.546875 16.128906 34.148438 16.007812 33.640625 C 15.941406 33.585938 15.871094 33.53125 15.722656 33.378906 C 15.421875 33.421875 15.121094 33.464844 14.847656 33.527344 C 14.847656 33.527344 14.832031 33.496094 14.753906 33.523438 M 12.34375 42.777344 C 12.492188 42.609375 12.640625 42.445312 12.882812 42.230469 C 12.941406 42.125 13 42.023438 13.152344 41.921875 C 13.304688 42.546875 13.558594 42.996094 14.128906 42.832031 C 14.292969 42.785156 14.445312 42.652344 14.605469 42.558594 C 14.507812 42.382812 14.398438 42.214844 14.308594 42.03125 C 14.175781 41.742188 13.964844 41.449219 13.949219 41.144531 C 13.898438 40.089844 13.945312 39.027344 13.898438 37.976562 C 13.859375 37.078125 13.558594 36.324219 12.851562 36.046875 C 12.003906 35.714844 11.152344 35.683594 10.410156 36.445312 C 10.269531 36.585938 10.210938 36.925781 10.195312 37.183594 C 10.1875 37.324219 10.328125 37.570312 10.4375 37.609375 C 10.554688 37.648438 10.757812 37.558594 10.84375 37.433594 C 11.65625 36.214844 12.671875 36.367188 13.171875 37.976562 C 13.148438 38.207031 13.125 38.433594 12.957031 38.644531 C 12.515625 38.683594 12.078125 38.722656 11.53125 38.746094 C 11.363281 38.835938 11.199219 38.925781 10.921875 38.992188 C 9.875 39.675781 9.667969 40.117188 9.777344 41.539062 C 9.847656 41.683594 9.917969 41.828125 10 42.113281 C 10.335938 42.355469 10.671875 42.597656 11.097656 42.9375 C 11.480469 42.875 11.859375 42.8125 12.34375 42.777344 M 18.292969 27.964844 C 18.859375 29.105469 19.394531 29.375 20.238281 28.824219 C 24.085938 26.320312 27.921875 23.796875 31.757812 21.261719 C 32.21875 20.957031 32.558594 20.570312 32.570312 19.730469 C 32.578125 18.828125 32.339844 18.269531 31.75 17.886719 C 27.929688 15.386719 24.117188 12.875 20.292969 10.386719 C 19.394531 9.804688 18.824219 10.082031 18.246094 11.449219 C 18.234375 16.101562 18.222656 20.75 18.21875 25.398438 C 18.21875 26.207031 18.261719 27.011719 18.292969 27.964844 M 39.066406 37.046875 C 39.171875 36.523438 39.277344 36.003906 39.417969 35.300781 C 39.511719 35.585938 39.558594 35.691406 39.585938 35.808594 C 40.058594 37.921875 40.511719 40.046875 41.011719 42.152344 C 41.078125 42.425781 41.375 42.800781 41.550781 42.785156 C 41.757812 42.769531 42.058594 42.425781 42.125 42.144531 C 42.40625 40.933594 42.542969 39.660156 42.867188 38.46875 C 43.289062 36.914062 43.183594 35.101562 44.15625 33.804688 C 44.203125 33.742188 44.113281 33.492188 44.089844 33.371094 C 43.375 33.15625 43.03125 33.550781 42.890625 34.390625 C 42.722656 35.386719 42.53125 36.378906 42.335938 37.367188 C 42.105469 38.515625 41.859375 39.660156 41.621094 40.804688 C 41.367188 40.550781 41.300781 40.359375 41.257812 40.164062 C 40.863281 38.183594 40.484375 36.199219 40.0625 34.230469 C 39.988281 33.898438 39.714844 33.640625 39.535156 33.347656 C 39.347656 33.636719 39.09375 33.886719 38.992188 34.21875 C 38.796875 34.835938 38.695312 35.496094 38.550781 36.140625 C 38.191406 37.765625 37.828125 39.394531 37.402344 41.320312 C 37.265625 40.839844 37.210938 40.6875 37.179688 40.523438 C 36.832031 38.746094 36.492188 36.96875 36.148438 35.191406 C 36.0625 34.746094 36.039062 34.25 35.863281 33.878906 C 35.734375 33.605469 35.410156 33.460938 35.15625 33.339844 C 35.054688 33.296875 34.894531 33.484375 34.761719 33.566406 C 34.878906 33.808594 35.007812 34.042969 35.105469 34.296875 C 35.214844 34.578125 35.320312 34.867188 35.382812 35.167969 C 35.839844 37.453125 36.269531 39.75 36.75 42.023438 C 36.816406 42.339844 37.117188 42.773438 37.3125 42.777344 C 37.515625 42.78125 37.835938 42.382812 37.914062 42.074219 C 38.320312 40.46875 38.667969 38.839844 39.066406 37.046875 M 28.011719 41.078125 C 28.011719 39.0625 28.003906 37.046875 28.019531 35.03125 C 28.019531 34.746094 28.101562 34.429688 28.21875 34.1875 C 28.332031 33.945312 28.535156 33.773438 28.703125 33.574219 C 28.464844 33.476562 28.234375 33.347656 27.992188 33.292969 C 27.785156 33.246094 27.566406 33.277344 27.347656 33.285156 C 24.578125 33.355469 25.246094 32.714844 24.246094 36.179688 C 23.765625 37.835938 23.296875 39.496094 22.769531 41.339844 C 22.628906 40.980469 22.554688 40.84375 22.511719 40.691406 C 21.917969 38.574219 21.332031 36.457031 20.730469 34.347656 C 20.640625 34.027344 20.523438 33.640625 20.324219 33.484375 C 20.136719 33.332031 19.828125 33.445312 19.574219 33.445312 C 19.640625 33.707031 19.695312 33.976562 19.785156 34.226562 C 19.90625 34.570312 20.089844 34.882812 20.191406 35.234375 C 20.824219 37.445312 21.421875 39.671875 22.078125 41.867188 C 22.191406 42.25 22.519531 42.519531 22.75 42.835938 C 22.972656 42.507812 23.289062 42.226562 23.40625 41.84375 C 24.089844 39.582031 24.78125 37.324219 25.359375 35.015625 C 25.652344 33.847656 26.285156 34.144531 26.859375 34.148438 C 27.546875 34.15625 27.28125 34.910156 27.285156 35.355469 C 27.316406 37.230469 27.300781 39.105469 27.296875 40.976562 C 27.296875 41.410156 27.417969 41.933594 26.871094 42.019531 C 26.777344 42.035156 26.710938 42.320312 26.628906 42.484375 C 26.773438 42.601562 26.90625 42.804688 27.054688 42.820312 C 27.457031 42.871094 27.863281 42.867188 28.265625 42.824219 C 28.421875 42.808594 28.566406 42.628906 28.71875 42.523438 C 28.59375 42.339844 28.464844 42.167969 28.355469 41.972656 C 28.230469 41.753906 28.125 41.511719 28.011719 41.078125 M 30.769531 37.109375 C 30.765625 36.96875 30.765625 36.828125 30.765625 36.683594 C 30.757812 34.054688 30.757812 34.0625 32.761719 34.125 C 33.136719 34.136719 33.460938 34.128906 33.496094 34.800781 C 33.5 34.871094 33.949219 35.042969 34.050781 34.9375 C 34.375 34.597656 34.082031 33.351562 33.664062 33.335938 C 32.347656 33.277344 31.027344 33.289062 29.710938 33.300781 C 29.601562 33.304688 29.417969 33.511719 29.402344 33.648438 C 29.386719 33.789062 29.511719 34.007812 29.617188 34.109375 C 29.730469 34.222656 29.894531 34.238281 30.046875 34.304688 C 30.046875 35.582031 30.046875 36.785156 30.046875 37.984375 C 30.046875 39.222656 30.070312 40.460938 30.039062 41.695312 C 30.019531 42.496094 30.226562 42.875 30.871094 42.847656 C 31.785156 42.808594 32.703125 42.800781 33.613281 42.847656 C 34.335938 42.886719 34.503906 42.363281 34.445312 41.582031 C 34.429688 41.390625 34.28125 41.214844 34.195312 41.027344 C 34.058594 41.148438 33.90625 41.25 33.789062 41.394531 C 33.652344 41.566406 33.550781 41.9375 33.421875 41.945312 C 32.546875 41.992188 31.671875 41.96875 30.816406 41.96875 C 30.816406 40.6875 30.816406 39.609375 30.816406 38.445312 C 31.457031 38.445312 32.046875 38.488281 32.628906 38.425781 C 32.917969 38.394531 33.195312 38.167969 33.476562 38.03125 C 33.207031 37.875 32.945312 37.644531 32.660156 37.585938 C 32.046875 37.453125 31.417969 37.410156 30.769531 37.109375 M 5.539062 36.640625 C 5.539062 35.898438 5.542969 35.15625 5.539062 34.414062 C 5.527344 33.457031 5.191406 33.113281 4.460938 33.332031 C 4.355469 33.367188 4.1875 33.511719 4.1875 33.601562 C 4.191406 33.769531 4.289062 34.074219 4.355469 34.078125 C 4.972656 34.125 4.820312 34.714844 4.820312 35.171875 C 4.828125 37.21875 4.824219 39.269531 4.824219 41.316406 C 4.824219 42.820312 4.835938 42.828125 6.015625 42.828125 C 6.660156 42.832031 7.304688 42.832031 7.949219 42.828125 C 9.125 42.828125 9.214844 42.683594 8.984375 40.722656 C 8.636719 41.226562 8.414062 41.550781 8.171875 41.898438 C 7.359375 41.898438 6.484375 41.898438 5.539062 41.898438 C 5.539062 40.15625 5.539062 38.503906 5.539062 36.640625 Z M 5.539062 36.640625 "/>
<path style=" stroke:none;fill-rule:nonzero;fill:rgb(99.215686%,85.490196%,14.117647%);fill-opacity:1;" d="M 18.296875 11.261719 C 18.824219 10.082031 19.394531 9.804688 20.292969 10.386719 C 24.117188 12.875 27.929688 15.386719 31.75 17.886719 C 32.339844 18.269531 32.578125 18.828125 32.570312 19.730469 C 32.558594 20.570312 32.21875 20.957031 31.757812 21.261719 C 27.921875 23.796875 24.085938 26.320312 20.238281 28.824219 C 19.394531 29.375 18.859375 29.105469 18.351562 27.871094 C 18.46875 27.558594 18.578125 27.34375 18.578125 27.125 C 18.585938 22.085938 18.589844 17.046875 18.574219 12.007812 C 18.574219 11.757812 18.390625 11.507812 18.296875 11.261719 M 21.390625 20.277344 C 21.785156 20.277344 22.179688 20.277344 22.613281 20.277344 C 22.636719 20.722656 22.652344 21.03125 22.667969 21.339844 C 22.683594 21.644531 22.699219 21.945312 22.71875 22.3125 C 23.070312 22.292969 23.351562 22.277344 23.617188 22.257812 C 23.804688 20.476562 23.804688 20.476562 25.210938 20.152344 C 25.195312 19.769531 25.183594 19.378906 25.160156 18.828125 C 24.050781 19.222656 23.527344 18.773438 23.664062 17.308594 C 23.671875 17.195312 23.300781 16.878906 23.152344 16.921875 C 22.96875 16.972656 22.671875 17.335938 22.691406 17.507812 C 22.859375 18.882812 22.277344 19.042969 21.472656 18.921875 C 21.378906 18.910156 21.28125 18.980469 21.078125 19.042969 C 21.144531 19.476562 21.203125 19.863281 21.390625 20.277344 Z M 21.390625 20.277344 "/>
<path style=" stroke:none;fill-rule:nonzero;fill:rgb(15.294118%,15.294118%,15.294118%);fill-opacity:1;" d="M 39.050781 37.132812 C 38.667969 38.839844 38.320312 40.46875 37.914062 42.074219 C 37.835938 42.382812 37.515625 42.78125 37.3125 42.777344 C 37.117188 42.773438 36.816406 42.339844 36.75 42.023438 C 36.269531 39.75 35.839844 37.453125 35.382812 35.167969 C 35.320312 34.867188 35.214844 34.578125 35.105469 34.296875 C 35.007812 34.042969 34.878906 33.808594 34.761719 33.566406 C 34.894531 33.484375 35.054688 33.296875 35.15625 33.339844 C 35.410156 33.460938 35.734375 33.605469 35.863281 33.878906 C 36.039062 34.25 36.0625 34.746094 36.148438 35.191406 C 36.492188 36.96875 36.832031 38.746094 37.179688 40.523438 C 37.210938 40.6875 37.265625 40.839844 37.402344 41.320312 C 37.828125 39.394531 38.191406 37.765625 38.550781 36.140625 C 38.695312 35.496094 38.796875 34.835938 38.992188 34.21875 C 39.09375 33.886719 39.347656 33.636719 39.535156 33.347656 C 39.714844 33.640625 39.988281 33.898438 40.0625 34.230469 C 40.484375 36.199219 40.863281 38.183594 41.257812 40.164062 C 41.300781 40.359375 41.367188 40.550781 41.621094 40.804688 C 41.859375 39.660156 42.105469 38.515625 42.335938 37.367188 C 42.53125 36.378906 42.722656 35.386719 42.890625 34.390625 C 43.03125 33.550781 43.375 33.15625 44.089844 33.371094 C 44.113281 33.492188 44.203125 33.742188 44.15625 33.804688 C 43.183594 35.101562 43.289062 36.914062 42.867188 38.46875 C 42.542969 39.660156 42.40625 40.933594 42.125 42.144531 C 42.058594 42.425781 41.757812 42.769531 41.550781 42.785156 C 41.375 42.800781 41.078125 42.425781 41.011719 42.152344 C 40.511719 40.046875 40.058594 37.921875 39.585938 35.808594 C 39.558594 35.691406 39.511719 35.585938 39.417969 35.300781 C 39.277344 36.003906 39.171875 36.523438 39.050781 37.132812 Z M 39.050781 37.132812 "/>
<path style=" stroke:none;fill-rule:nonzero;fill:rgb(16.470588%,16.470588%,16.470588%);fill-opacity:1;" d="M 28.011719 41.179688 C 28.125 41.511719 28.230469 41.753906 28.355469 41.972656 C 28.464844 42.167969 28.59375 42.339844 28.71875 42.523438 C 28.566406 42.628906 28.421875 42.808594 28.265625 42.824219 C 27.863281 42.867188 27.457031 42.871094 27.054688 42.820312 C 26.90625 42.804688 26.773438 42.601562 26.628906 42.484375 C 26.710938 42.320312 26.777344 42.035156 26.871094 42.019531 C 27.417969 41.933594 27.296875 41.410156 27.296875 40.976562 C 27.300781 39.105469 27.316406 37.230469 27.285156 35.355469 C 27.28125 34.910156 27.546875 34.15625 26.859375 34.148438 C 26.285156 34.144531 25.652344 33.847656 25.359375 35.015625 C 24.78125 37.324219 24.089844 39.582031 23.40625 41.84375 C 23.289062 42.226562 22.972656 42.507812 22.75 42.835938 C 22.519531 42.519531 22.191406 42.25 22.078125 41.867188 C 21.421875 39.671875 20.824219 37.445312 20.191406 35.234375 C 20.089844 34.882812 19.90625 34.570312 19.785156 34.226562 C 19.695312 33.976562 19.640625 33.707031 19.574219 33.445312 C 19.828125 33.445312 20.136719 33.332031 20.324219 33.484375 C 20.523438 33.640625 20.640625 34.027344 20.730469 34.347656 C 21.332031 36.457031 21.917969 38.574219 22.511719 40.691406 C 22.554688 40.84375 22.628906 40.980469 22.769531 41.339844 C 23.296875 39.496094 23.765625 37.835938 24.246094 36.179688 C 25.246094 32.714844 24.578125 33.355469 27.347656 33.285156 C 27.566406 33.277344 27.785156 33.246094 27.992188 33.292969 C 28.234375 33.347656 28.464844 33.476562 28.703125 33.574219 C 28.535156 33.773438 28.332031 33.945312 28.21875 34.1875 C 28.101562 34.429688 28.019531 34.746094 28.019531 35.03125 C 28.003906 37.046875 28.011719 39.0625 28.011719 41.179688 Z M 28.011719 41.179688 "/>
<path style=" stroke:none;fill-rule:nonzero;fill:rgb(15.686275%,15.686275%,15.686275%);fill-opacity:1;" d="M 30.78125 37.21875 C 31.417969 37.410156 32.046875 37.453125 32.660156 37.585938 C 32.945312 37.644531 33.207031 37.875 33.476562 38.03125 C 33.195312 38.167969 32.917969 38.394531 32.628906 38.425781 C 32.046875 38.488281 31.457031 38.445312 30.816406 38.445312 C 30.816406 39.609375 30.816406 40.6875 30.816406 41.96875 C 31.671875 41.96875 32.546875 41.992188 33.421875 41.945312 C 33.550781 41.9375 33.652344 41.566406 33.789062 41.394531 C 33.90625 41.25 34.058594 41.148438 34.195312 41.027344 C 34.28125 41.214844 34.429688 41.390625 34.445312 41.582031 C 34.503906 42.363281 34.335938 42.886719 33.613281 42.847656 C 32.703125 42.800781 31.785156 42.808594 30.871094 42.847656 C 30.226562 42.875 30.019531 42.496094 30.039062 41.695312 C 30.070312 40.460938 30.046875 39.222656 30.046875 37.984375 C 30.046875 36.785156 30.046875 35.582031 30.046875 34.304688 C 29.894531 34.238281 29.730469 34.222656 29.617188 34.109375 C 29.511719 34.007812 29.386719 33.789062 29.402344 33.648438 C 29.417969 33.511719 29.601562 33.304688 29.710938 33.300781 C 31.027344 33.289062 32.347656 33.277344 33.664062 33.335938 C 34.082031 33.351562 34.375 34.597656 34.050781 34.9375 C 33.949219 35.042969 33.5 34.871094 33.496094 34.800781 C 33.460938 34.128906 33.136719 34.136719 32.761719 34.125 C 30.757812 34.0625 30.757812 34.054688 30.765625 36.683594 C 30.765625 36.828125 30.765625 36.96875 30.78125 37.21875 Z M 30.78125 37.21875 "/>
<path style=" stroke:none;fill-rule:nonzero;fill:rgb(15.294118%,15.294118%,15.294118%);fill-opacity:1;" d="M 16.539062 36.382812 C 17.351562 35.460938 18.90625 35.765625 19.597656 36.988281 C 20.457031 38.5 20.238281 41.300781 19.179688 42.390625 C 18.316406 43.269531 17.332031 43.214844 16.359375 42.101562 C 16.261719 41.882812 16.203125 41.796875 16.144531 41.707031 C 16.101562 41.910156 16.058594 42.109375 16.011719 42.3125 C 15.898438 42.480469 15.785156 42.644531 15.671875 42.8125 C 15.570312 42.578125 15.382812 42.34375 15.382812 42.109375 C 15.359375 39.75 15.382812 37.390625 15.351562 35.03125 C 15.347656 34.703125 15.113281 34.378906 14.925781 33.933594 C 14.855469 33.707031 14.84375 33.601562 14.832031 33.496094 C 14.832031 33.496094 14.847656 33.527344 14.917969 33.535156 C 15.257812 33.519531 15.53125 33.5 15.804688 33.480469 C 15.871094 33.53125 15.941406 33.585938 16.015625 33.792969 C 16.023438 34.917969 16.023438 35.890625 16.023438 36.863281 C 16.085938 36.878906 16.148438 36.894531 16.210938 36.90625 C 16.320312 36.734375 16.429688 36.558594 16.539062 36.382812 M 16.25 38.0625 C 16.214844 38.195312 16.175781 38.328125 16.152344 38.460938 C 15.910156 39.710938 16.050781 40.863281 16.785156 41.753906 C 17.257812 42.328125 17.867188 42.371094 18.429688 41.941406 C 19.320312 41.261719 19.449219 40.144531 19.367188 38.917969 C 19.292969 37.878906 18.9375 37.066406 18.167969 36.773438 C 17.347656 36.460938 16.710938 36.9375 16.25 38.0625 Z M 16.25 38.0625 "/>
<path style=" stroke:none;fill-rule:nonzero;fill:rgb(16.862745%,16.862745%,16.862745%);fill-opacity:1;" d="M 11.640625 38.761719 C 12.078125 38.722656 12.515625 38.683594 13.082031 38.640625 C 13.199219 38.359375 13.1875 38.082031 13.179688 37.800781 C 12.671875 36.367188 11.65625 36.214844 10.84375 37.433594 C 10.757812 37.558594 10.554688 37.648438 10.4375 37.609375 C 10.328125 37.570312 10.1875 37.324219 10.195312 37.183594 C 10.210938 36.925781 10.269531 36.585938 10.410156 36.445312 C 11.152344 35.683594 12.003906 35.714844 12.851562 36.046875 C 13.558594 36.324219 13.859375 37.078125 13.898438 37.976562 C 13.945312 39.027344 13.898438 40.089844 13.949219 41.144531 C 13.964844 41.449219 14.175781 41.742188 14.308594 42.03125 C 14.398438 42.214844 14.507812 42.382812 14.605469 42.558594 C 14.445312 42.652344 14.292969 42.785156 14.128906 42.832031 C 13.558594 42.996094 13.304688 42.546875 12.984375 41.882812 C 12.738281 41.816406 12.660156 41.792969 12.609375 41.699219 C 12.875 40.933594 13.113281 40.242188 13.347656 39.550781 C 13.273438 39.457031 13.195312 39.363281 13.121094 39.265625 C 12.550781 39.371094 11.96875 39.414062 11.414062 39.589844 C 10.683594 39.816406 10.335938 40.507812 10.5 41.246094 C 10.664062 42.003906 11.339844 42.414062 12.007812 42.140625 C 12.210938 42.058594 12.390625 41.890625 12.589844 41.839844 C 12.664062 42.035156 12.726562 42.15625 12.792969 42.277344 C 12.640625 42.445312 12.492188 42.609375 12.21875 42.746094 C 11.730469 42.757812 11.367188 42.796875 11.007812 42.839844 C 10.671875 42.597656 10.335938 42.355469 10 41.972656 C 9.933594 41.695312 9.867188 41.554688 9.796875 41.410156 C 9.667969 40.117188 9.875 39.675781 11.039062 39.023438 C 11.316406 38.953125 11.476562 38.859375 11.640625 38.761719 Z M 11.640625 38.761719 "/>
<path style=" stroke:none;fill-rule:nonzero;fill:rgb(12.156863%,12.156863%,12.156863%);fill-opacity:1;" d="M 5.539062 36.746094 C 5.539062 38.503906 5.539062 40.15625 5.539062 41.898438 C 6.484375 41.898438 7.359375 41.898438 8.171875 41.898438 C 8.414062 41.550781 8.636719 41.226562 8.984375 40.722656 C 9.214844 42.683594 9.125 42.828125 7.949219 42.828125 C 7.304688 42.832031 6.660156 42.832031 6.015625 42.828125 C 4.835938 42.828125 4.824219 42.820312 4.824219 41.316406 C 4.824219 39.269531 4.828125 37.21875 4.820312 35.171875 C 4.820312 34.714844 4.972656 34.125 4.355469 34.078125 C 4.289062 34.074219 4.191406 33.769531 4.1875 33.601562 C 4.1875 33.511719 4.355469 33.367188 4.460938 33.332031 C 5.191406 33.113281 5.527344 33.457031 5.539062 34.414062 C 5.542969 35.15625 5.539062 35.898438 5.539062 36.746094 Z M 5.539062 36.746094 "/>
<path style=" stroke:none;fill-rule:nonzero;fill:rgb(100%,85.490196%,9.019608%);fill-opacity:1;" d="M 18.269531 11.355469 C 18.390625 11.507812 18.574219 11.757812 18.574219 12.007812 C 18.589844 17.046875 18.585938 22.085938 18.578125 27.125 C 18.578125 27.34375 18.46875 27.558594 18.347656 27.796875 C 18.261719 27.011719 18.21875 26.207031 18.21875 25.398438 C 18.222656 20.75 18.234375 16.101562 18.269531 11.355469 Z M 18.269531 11.355469 "/>
<path style=" stroke:none;fill-rule:nonzero;fill:rgb(74.117647%,74.117647%,74.117647%);fill-opacity:1;" d="M 16.476562 36.332031 C 16.429688 36.558594 16.320312 36.734375 16.210938 36.90625 C 16.148438 36.894531 16.085938 36.878906 16.023438 36.863281 C 16.023438 35.890625 16.023438 34.917969 16.035156 33.847656 C 16.128906 34.148438 16.234375 34.546875 16.292969 34.953125 C 16.359375 35.390625 16.378906 35.835938 16.476562 36.332031 Z M 16.476562 36.332031 "/>
<path style=" stroke:none;fill-rule:nonzero;fill:rgb(19.215686%,19.215686%,19.215686%);fill-opacity:1;" d="M 11.050781 42.886719 C 11.367188 42.796875 11.730469 42.757812 12.167969 42.734375 C 11.859375 42.8125 11.480469 42.875 11.050781 42.886719 Z M 11.050781 42.886719 "/>
<path style=" stroke:none;fill-rule:nonzero;fill:rgb(18.039216%,18.039216%,18.039216%);fill-opacity:1;" d="M 15.761719 33.429688 C 15.53125 33.5 15.257812 33.519531 14.902344 33.527344 C 15.121094 33.464844 15.421875 33.421875 15.761719 33.429688 Z M 15.761719 33.429688 "/>
<path style=" stroke:none;fill-rule:nonzero;fill:rgb(19.215686%,19.215686%,19.215686%);fill-opacity:1;" d="M 13.175781 37.890625 C 13.1875 38.082031 13.199219 38.359375 13.15625 38.648438 C 13.125 38.433594 13.148438 38.207031 13.175781 37.890625 Z M 13.175781 37.890625 "/>
<path style=" stroke:none;fill-rule:nonzero;fill:rgb(19.215686%,19.215686%,19.215686%);fill-opacity:1;" d="M 11.585938 38.753906 C 11.476562 38.859375 11.316406 38.953125 11.09375 39.035156 C 11.199219 38.925781 11.363281 38.835938 11.585938 38.753906 Z M 11.585938 38.753906 "/>
<path style=" stroke:none;fill-rule:nonzero;fill:rgb(18.039216%,18.039216%,18.039216%);fill-opacity:1;" d="M 16.046875 42.242188 C 16.058594 42.109375 16.101562 41.910156 16.144531 41.707031 C 16.203125 41.796875 16.261719 41.882812 16.328125 42.035156 C 16.246094 42.121094 16.164062 42.144531 16.046875 42.242188 Z M 16.046875 42.242188 "/>
<path style=" stroke:none;fill-rule:nonzero;fill:rgb(18.039216%,18.039216%,18.039216%);fill-opacity:1;" d="M 14.792969 33.511719 C 14.84375 33.601562 14.855469 33.707031 14.867188 33.890625 C 14.832031 33.820312 14.792969 33.671875 14.792969 33.511719 Z M 14.792969 33.511719 "/>
<path style=" stroke:none;fill-rule:nonzero;fill:rgb(19.215686%,19.215686%,19.215686%);fill-opacity:1;" d="M 9.789062 41.476562 C 9.867188 41.554688 9.933594 41.695312 9.996094 41.90625 C 9.917969 41.828125 9.847656 41.683594 9.789062 41.476562 Z M 9.789062 41.476562 "/>
<path style=" stroke:none;fill-rule:nonzero;fill:rgb(19.215686%,19.215686%,19.215686%);fill-opacity:1;" d="M 12.839844 42.253906 C 12.726562 42.15625 12.664062 42.035156 12.597656 41.847656 C 12.59375 41.78125 12.578125 41.769531 12.578125 41.769531 C 12.660156 41.792969 12.738281 41.816406 12.9375 41.878906 C 13 42.023438 12.941406 42.125 12.839844 42.253906 Z M 12.839844 42.253906 "/>
<path style=" stroke:none;fill-rule:nonzero;fill:rgb(10.588235%,9.803922%,3.921569%);fill-opacity:1;" d="M 21.324219 20.265625 C 21.203125 19.863281 21.144531 19.476562 21.078125 19.042969 C 21.28125 18.980469 21.378906 18.910156 21.472656 18.921875 C 22.277344 19.042969 22.859375 18.882812 22.691406 17.507812 C 22.671875 17.335938 22.96875 16.972656 23.152344 16.921875 C 23.300781 16.878906 23.671875 17.195312 23.664062 17.308594 C 23.527344 18.773438 24.050781 19.222656 25.160156 18.828125 C 25.183594 19.378906 25.195312 19.769531 25.210938 20.152344 C 23.804688 20.476562 23.804688 20.476562 23.617188 22.257812 C 23.351562 22.277344 23.070312 22.292969 22.71875 22.3125 C 22.699219 21.945312 22.683594 21.644531 22.667969 21.339844 C 22.652344 21.03125 22.636719 20.722656 22.613281 20.277344 C 22.179688 20.277344 21.785156 20.277344 21.324219 20.265625 Z M 21.324219 20.265625 "/>
<path style=" stroke:none;fill-rule:nonzero;fill:rgb(95.294118%,95.294118%,95.294118%);fill-opacity:1;" d="M 16.269531 37.984375 C 16.710938 36.9375 17.347656 36.460938 18.167969 36.773438 C 18.9375 37.066406 19.292969 37.878906 19.367188 38.917969 C 19.449219 40.144531 19.320312 41.261719 18.429688 41.941406 C 17.867188 42.371094 17.257812 42.328125 16.785156 41.753906 C 16.050781 40.863281 15.910156 39.710938 16.152344 38.460938 C 16.175781 38.328125 16.214844 38.195312 16.269531 37.984375 Z M 16.269531 37.984375 "/>
<path style=" stroke:none;fill-rule:nonzero;fill:rgb(92.54902%,92.54902%,92.54902%);fill-opacity:1;" d="M 12.609375 41.699219 C 12.578125 41.769531 12.59375 41.78125 12.585938 41.773438 C 12.390625 41.890625 12.210938 42.058594 12.007812 42.140625 C 11.339844 42.414062 10.664062 42.003906 10.5 41.246094 C 10.335938 40.507812 10.683594 39.816406 11.414062 39.589844 C 11.96875 39.414062 12.550781 39.371094 13.121094 39.265625 C 13.195312 39.363281 13.273438 39.457031 13.347656 39.550781 C 13.113281 40.242188 12.875 40.933594 12.609375 41.699219 Z M 12.609375 41.699219 "/>
</g>
</svg>
