<?xml version="1.0" encoding="UTF-8"?>
<svg xmlns="http://www.w3.org/2000/svg" xmlns:xlink="http://www.w3.org/1999/xlink" width="48px" height="48px" viewBox="0 0 48 48" version="1.1">
<defs>
<linearGradient id="linear0" gradientUnits="userSpaceOnUse" x1="12.4809" y1="2" x2="12.4809" y2="22.7407" gradientTransform="matrix(1.5,0,0,1.5,0,0)">
<stop offset="0" style="stop-color:rgb(19.607843%,49.411765%,74.117647%);stop-opacity:1;"/>
<stop offset="1" style="stop-color:rgb(8.235294%,39.607843%,65.490196%);stop-opacity:1;"/>
</linearGradient>
<linearGradient id="linear1" gradientUnits="userSpaceOnUse" x1="19.519" y1="9.25928" x2="19.519" y2="30" gradientTransform="matrix(1.5,0,0,1.5,0,0)">
<stop offset="0" style="stop-color:rgb(100%,85.490196%,29.411765%);stop-opacity:1;"/>
<stop offset="1" style="stop-color:rgb(97.647059%,77.647059%,0%);stop-opacity:1;"/>
</linearGradient>
</defs>
<g id="surface1">
<path style=" stroke:none;fill-rule:evenodd;fill:url(#linear0);" d="M 19.523438 3 C 16.230469 3 13.558594 5.585938 13.558594 8.777344 L 13.558594 12.777344 L 23.886719 12.777344 L 23.886719 13.890625 L 8.96875 13.890625 C 5.671875 13.890625 3 16.476562 3 19.667969 L 3 28.332031 C 3 31.523438 5.671875 34.109375 8.96875 34.109375 L 12.410156 34.109375 L 12.410156 29.222656 C 12.410156 26.03125 15.082031 23.445312 18.378906 23.445312 L 29.394531 23.445312 C 32.183594 23.445312 34.441406 21.253906 34.441406 18.554688 L 34.441406 8.777344 C 34.441406 5.585938 31.769531 3 28.476562 3 Z M 18.148438 10.109375 C 19.289062 10.109375 20.214844 9.214844 20.214844 8.109375 C 20.214844 7.007812 19.289062 6.109375 18.148438 6.109375 C 17.007812 6.109375 16.082031 7.007812 16.082031 8.109375 C 16.082031 9.214844 17.007812 10.109375 18.148438 10.109375 Z M 18.148438 10.109375 "/>
<path style=" stroke:none;fill-rule:evenodd;fill:url(#linear1);" d="M 28.476562 45 C 31.769531 45 34.441406 42.414062 34.441406 39.222656 L 34.441406 35.222656 L 24.113281 35.222656 L 24.113281 34.109375 L 39.03125 34.109375 C 42.328125 34.109375 45 31.523438 45 28.332031 L 45 19.667969 C 45 16.476562 42.328125 13.890625 39.03125 13.890625 L 35.589844 13.890625 L 35.589844 18.777344 C 35.589844 21.96875 32.917969 24.554688 29.621094 24.554688 L 18.605469 24.554688 C 15.816406 24.554688 13.558594 26.746094 13.558594 29.445312 L 13.558594 39.222656 C 13.558594 42.414062 16.230469 45 19.523438 45 Z M 29.851562 37.890625 C 28.710938 37.890625 27.785156 38.785156 27.785156 39.890625 C 27.785156 40.992188 28.710938 41.890625 29.851562 41.890625 C 30.992188 41.890625 31.917969 40.992188 31.917969 39.890625 C 31.917969 38.785156 30.992188 37.890625 29.851562 37.890625 Z M 29.851562 37.890625 "/>
</g>
</svg>
